<?xml version="1.0" encoding="utf-8"?>
<!-- Generator: Adobe Illustrator 21.0.2, SVG Export Plug-In . SVG Version: 6.00 Build 0)  -->
<svg version="1.1" id="Capa_1" xmlns="http://www.w3.org/2000/svg" xmlns:xlink="http://www.w3.org/1999/xlink" x="0px" y="0px"
	 viewBox="0 0 170.1 170.1" style="enable-background:new 0 0 170.1 170.1;" xml:space="preserve">
<style type="text/css">
	.st0{fill:none;stroke:url(#SVGID_1_);stroke-width:8;stroke-miterlimit:10;}
	.st1{fill:none;stroke:#FFFFFF;stroke-width:2;stroke-linecap:round;stroke-miterlimit:10;}
	.st2{fill:none;stroke:#FFFFFF;stroke-linecap:round;stroke-miterlimit:10;}
	.st3{opacity:0.9;fill:#FFFFFF;stroke:#FFFFFF;stroke-width:0.5;stroke-linecap:round;stroke-miterlimit:10;}
</style>
<radialGradient id="SVGID_1_" cx="85.04" cy="85.04" r="74.8661" gradientUnits="userSpaceOnUse">
	<stop  offset="0" style="stop-color:#FFFFFF"/>
	<stop  offset="0.3488" style="stop-color:#FDFDFD"/>
	<stop  offset="0.5045" style="stop-color:#F6F6F6"/>
	<stop  offset="0.6218" style="stop-color:#E9E9E9"/>
	<stop  offset="0.7199" style="stop-color:#D7D7D7"/>
	<stop  offset="0.806" style="stop-color:#BFBFBF"/>
	<stop  offset="0.8836" style="stop-color:#A3A3A3"/>
	<stop  offset="0.9533" style="stop-color:#818181"/>
	<stop  offset="1" style="stop-color:#666666"/>
</radialGradient>
<circle class="st0" cx="85" cy="85" r="70.9"/>
<line class="st1" x1="85" y1="12" x2="85" y2="16"/>
<line class="st2" x1="48.5" y1="21.8" x2="50.5" y2="25.2"/>
<line class="st2" x1="21.8" y1="48.5" x2="25.2" y2="50.5"/>
<line class="st1" x1="12" y1="85" x2="16" y2="85"/>
<line class="st2" x1="21.8" y1="121.6" x2="25.2" y2="119.6"/>
<line class="st2" x1="48.5" y1="148.3" x2="50.5" y2="144.8"/>
<line class="st1" x1="85" y1="158.1" x2="85" y2="154.1"/>
<line class="st2" x1="121.6" y1="148.3" x2="119.6" y2="144.8"/>
<line class="st2" x1="148.3" y1="121.6" x2="144.8" y2="119.6"/>
<line class="st1" x1="158.1" y1="85" x2="154.1" y2="85"/>
<line class="st2" x1="148.3" y1="48.5" x2="144.8" y2="50.5"/>
<line class="st2" x1="121.6" y1="21.8" x2="119.6" y2="25.2"/>
<line class="st1" x1="85" y1="12" x2="85" y2="16"/>
<line class="st1" x1="12" y1="85" x2="16" y2="85"/>
<line class="st1" x1="85" y1="158.1" x2="85" y2="154.1"/>
<line class="st1" x1="158.1" y1="85" x2="154.1" y2="85"/>
<ellipse transform="matrix(0.9848 -0.1736 0.1736 0.9848 -1.5139 12.854)" class="st3" cx="72.7" cy="15.1" rx="1" ry="1"/>
<ellipse transform="matrix(0.9397 -0.342 0.342 0.9397 -2.5903 21.878)" class="st3" cx="60.7" cy="18.3" rx="1" ry="1"/>
<ellipse transform="matrix(0.766 -0.6428 0.6428 0.766 -10.47 32.4744)" class="st3" cx="39.4" cy="30.6" rx="1" ry="1"/>
<ellipse transform="matrix(0.6428 -0.766 0.766 0.6428 -19.2261 37.5222)" class="st3" cx="30.6" cy="39.4" rx="1" ry="1"/>
<ellipse transform="matrix(0.342 -0.9397 0.9397 0.342 -45.049 57.1492)" class="st3" cx="18.3" cy="60.7" rx="1" ry="1"/>
<ellipse transform="matrix(0.1736 -0.9848 0.9848 0.1736 -59.1387 74.9293)" class="st3" cx="15.1" cy="72.7" rx="1" ry="1"/>
<ellipse transform="matrix(0.9848 -0.1736 0.1736 0.9848 -16.6801 4.0978)" class="st3" cx="15.1" cy="97.4" rx="1" ry="1"/>
<ellipse transform="matrix(0.9397 -0.342 0.342 0.9397 -36.2928 12.8474)" class="st3" cx="18.3" cy="109.3" rx="1" ry="1"/>
<ellipse transform="matrix(0.766 -0.6428 0.6428 0.766 -76.8509 50.2611)" class="st3" cx="30.6" cy="130.7" rx="1" ry="1"/>
<ellipse transform="matrix(0.6428 -0.766 0.766 0.6428 -92.7667 79.9808)" class="st3" cx="39.4" cy="139.5" rx="1" ry="1"/>
<ellipse transform="matrix(0.342 -0.9397 0.9397 0.342 -102.6738 156.9582)" class="st3" cx="60.7" cy="151.8" rx="1" ry="1"/>
<ellipse transform="matrix(0.1736 -0.9848 0.9848 0.1736 -92.5668 199.6846)" class="st3" cx="72.7" cy="155" rx="1" ry="1"/>
<ellipse transform="matrix(0.9848 -0.1736 0.1736 0.9848 -25.4362 19.264)" class="st3" cx="97.4" cy="155" rx="1" ry="1"/>
<ellipse transform="matrix(0.9397 -0.342 0.342 0.9397 -44.8008 46.63)" class="st3" cx="109.8" cy="150.4" rx="1" ry="1"/>
<ellipse transform="matrix(0.766 -0.6428 0.6428 0.766 -58.1585 116.5052)" class="st3" cx="131" cy="138.1" rx="1" ry="1"/>
<ellipse transform="matrix(0.6428 -0.766 0.766 0.6428 -49.3109 153.2179)" class="st3" cx="139.6" cy="129.5" rx="1" ry="1"/>
<ellipse transform="matrix(0.342 -0.9397 0.9397 0.342 -1.8987 213.9682)" class="st3" cx="151.8" cy="108.3" rx="1" ry="1"/>
<ellipse transform="matrix(0.1736 -0.9848 0.9848 0.1736 33.056 232.4025)" class="st3" cx="155" cy="96.5" rx="1" ry="1"/>
<ellipse transform="matrix(0.9848 -0.1736 0.1736 0.9848 -10.1634 28.0126)" class="st3" cx="155" cy="72.1" rx="1" ry="1"/>
<ellipse transform="matrix(0.9397 -0.342 0.342 0.9397 -11.4512 55.566)" class="st3" cx="151.8" cy="60.3" rx="1" ry="1"/>
<ellipse transform="matrix(0.766 -0.6428 0.6428 0.766 7.5275 98.9047)" class="st3" cx="139.6" cy="39.1" rx="1" ry="1"/>
<ellipse transform="matrix(0.6428 -0.766 0.766 0.6428 23.4598 111.2037)" class="st3" cx="131" cy="30.4" rx="1" ry="1"/>
<ellipse transform="matrix(0.342 -0.9397 0.9397 0.342 55.1229 115.204)" class="st3" cx="109.8" cy="18.2" rx="1" ry="1"/>
<ellipse transform="matrix(0.1736 -0.9848 0.9848 0.1736 66.1341 108.9531)" class="st3" cx="98" cy="15.1" rx="1" ry="1"/>
</svg>
