<svg id="Capa_1" data-name="Capa 1" xmlns="http://www.w3.org/2000/svg" xmlns:xlink="http://www.w3.org/1999/xlink" viewBox="0 0 171.18 170.54"><defs><style>.cls-1,.cls-10,.cls-2,.cls-4,.cls-5,.cls-9{fill:none;}.cls-1{stroke:#c22e24;}.cls-1,.cls-11,.cls-2,.cls-4,.cls-5,.cls-9{stroke-miterlimit:10;}.cls-1,.cls-2{stroke-width:8px;opacity:0.7;}.cls-2{stroke:#81ae38;}.cls-3{font-size:7.5px;fill:#070308;font-family:Roboto-Regular, Roboto;}.cls-4,.cls-5{stroke:#070308;}.cls-5{stroke-width:0.5px;}.cls-6{fill:#1f1d20;}.cls-7{fill:#6f7071;}.cls-8{fill:#2970ca;}.cls-9{stroke:#989898;stroke-width:0.6px;}.cls-11,.cls-9{stroke-linecap:round;}.cls-11{stroke:#b1b1b1;stroke-width:0.2px;fill:url(#Degradado_sin_nombre_136);}.cls-12{fill:#fff;}</style><linearGradient id="Degradado_sin_nombre_136" x1="110.23" y1="60.37" x2="60.12" y2="110.48" gradientUnits="userSpaceOnUse"><stop offset="0" stop-color="#cbcbcb"/><stop offset="0.17" stop-color="#c5c5c5"/><stop offset="0.39" stop-color="#b5b5b5"/><stop offset="0.63" stop-color="#9b9b9b"/><stop offset="0.89" stop-color="#777676"/><stop offset="1" stop-color="#666565"/></linearGradient></defs><title>Main screen_static</title><path class="cls-1" d="M26.6,64A62.54,62.54,0,0,1,64.05,26.73"/><path class="cls-2" d="M106.63,26.85A62.54,62.54,0,0,1,143.87,64.3"/><text class="cls-3" transform="translate(35.6 90.18) rotate(-90)">90</text><text class="cls-3" transform="translate(39.9 64.71) rotate(-60)">60</text><text class="cls-3" transform="translate(56.31 44.9) rotate(-30)">30</text><text class="cls-3" transform="translate(105.88 40.15) rotate(30)">30</text><text class="cls-3" transform="translate(125.7 56.56) rotate(60)">60</text><text class="cls-3" transform="translate(134.75 80.67) rotate(90)">90</text><text class="cls-3" transform="translate(131.45 105.14) rotate(120)">120</text><text class="cls-3" transform="translate(115.04 125.95) rotate(150)">150</text><text class="cls-3" transform="translate(91.53 136) rotate(180)">180</text><text class="cls-3" transform="translate(65.46 131.7) rotate(-150)">150</text><text class="cls-3" transform="translate(45.65 115.29) rotate(-120)">120</text><text class="cls-3" transform="translate(35.6 90.18) rotate(-90)">90</text><line class="cls-4" x1="19.13" y1="85.39" x2="28.13" y2="85.39"/><line class="cls-4" x1="28" y1="52.37" x2="35.79" y2="56.87"/><line class="cls-4" x1="52.19" y1="28.21" x2="56.69" y2="36.01"/><line class="cls-4" x1="85.21" y1="19.39" x2="85.21" y2="28.39"/><line class="cls-4" x1="118.23" y1="28.25" x2="113.73" y2="36.05"/><line class="cls-4" x1="142.39" y1="52.44" x2="134.59" y2="56.94"/><line class="cls-4" x1="151.21" y1="85.47" x2="142.21" y2="85.47"/><line class="cls-4" x1="142.35" y1="118.48" x2="134.55" y2="113.98"/><line class="cls-4" x1="118.16" y1="142.64" x2="113.66" y2="134.84"/><line class="cls-4" x1="85.13" y1="151.47" x2="85.13" y2="142.47"/><line class="cls-4" x1="52.12" y1="142.6" x2="56.62" y2="134.8"/><line class="cls-4" x1="27.96" y1="118.41" x2="35.75" y2="113.91"/><line class="cls-5" x1="20.14" y1="73.92" x2="24.08" y2="74.61"/><line class="cls-5" x1="23.13" y1="62.8" x2="26.89" y2="64.17"/><line class="cls-5" x1="34.61" y1="42.94" x2="37.67" y2="45.52"/><line class="cls-5" x1="42.75" y1="34.81" x2="45.33" y2="37.87"/><line class="cls-5" x1="62.62" y1="23.35" x2="63.99" y2="27.11"/><line class="cls-5" x1="73.74" y1="20.38" x2="74.44" y2="24.32"/><line class="cls-5" x1="96.68" y1="20.4" x2="95.99" y2="24.33"/><line class="cls-5" x1="107.8" y1="23.38" x2="106.43" y2="27.14"/><line class="cls-5" x1="127.65" y1="34.86" x2="125.08" y2="37.93"/><line class="cls-5" x1="135.79" y1="43.01" x2="132.72" y2="45.58"/><line class="cls-5" x1="147.24" y1="62.88" x2="143.49" y2="64.24"/><line class="cls-5" x1="150.22" y1="74" x2="146.28" y2="74.69"/><line class="cls-5" x1="150.2" y1="96.93" x2="146.26" y2="96.24"/><line class="cls-5" x1="147.22" y1="108.05" x2="143.46" y2="106.68"/><line class="cls-5" x1="135.74" y1="127.91" x2="132.67" y2="125.33"/><line class="cls-5" x1="127.59" y1="136.04" x2="125.02" y2="132.98"/><line class="cls-5" x1="107.72" y1="147.5" x2="106.35" y2="143.74"/><line class="cls-5" x1="96.6" y1="150.47" x2="95.91" y2="146.53"/><line class="cls-5" x1="73.67" y1="150.46" x2="74.36" y2="146.52"/><line class="cls-5" x1="62.55" y1="147.47" x2="63.92" y2="143.71"/><line class="cls-5" x1="42.69" y1="135.99" x2="45.26" y2="132.93"/><line class="cls-5" x1="34.56" y1="127.84" x2="37.62" y2="125.27"/><line class="cls-5" x1="23.1" y1="107.97" x2="26.86" y2="106.61"/><line class="cls-5" x1="20.13" y1="96.85" x2="24.07" y2="96.16"/><path class="cls-6" d="M81.86,126.16l-.15.16a1.14,1.14,0,0,1-.21.16,1.29,1.29,0,0,1-.29.13,1.46,1.46,0,0,1-1-.06,1.32,1.32,0,0,1-.45-.33,1.56,1.56,0,0,1-.3-.52,2.12,2.12,0,0,1,0-1.34,1.54,1.54,0,0,1,.3-.52,1.38,1.38,0,0,1,.45-.33,1.33,1.33,0,0,1,.56-.12,1.59,1.59,0,0,1,.37,0,1.22,1.22,0,0,1,.28.1,1,1,0,0,1,.21.15l.16.17s0,.06,0,.08l0,.05,0,.08-.06.09-.06.09-.05.08h0l0,0-.14-.14-.16-.13a.81.81,0,0,0-.19-.09.8.8,0,0,0-.25,0,.83.83,0,0,0-.36.08.8.8,0,0,0-.28.22,1,1,0,0,0-.18.35,1.54,1.54,0,0,0-.06.45,1.52,1.52,0,0,0,.07.48,1,1,0,0,0,.19.35.78.78,0,0,0,.28.21.83.83,0,0,0,.34.07.77.77,0,0,0,.43-.12,1.72,1.72,0,0,0,.33-.28l0,0s0,0,0,0l0,.07.06.09.07.09.05.07S81.9,126.11,81.86,126.16Z"/><path class="cls-6" d="M85,126.59h-.54a0,0,0,0,1-.05,0l0-.08-.1-.32L84.2,126a.2.2,0,0,0,0-.07l-.05,0H82.92l0,0a.28.28,0,0,0,0,.09l-.05.17-.08.27,0,.11,0,0h-.49s0,0,0,0a.46.46,0,0,1,0-.1l0-.12.08-.24.11-.31.12-.33.1-.29.08-.21.08-.22.12-.29.13-.32.12-.3.09-.23,0-.11,0-.07s0,0,.06,0h.32l.11,0h0l0,.08.07.17L84,124l.16.42.16.42.07.19.12.32.15.39.14.38.11.29.05.13S85,126.58,85,126.59Zm-1.25-1.94-.11-.29-.07-.16-.05-.11-.08.22-.12.32-.12.31-.07.2-.05.16a.07.07,0,0,0,0,.08.27.27,0,0,0,.14,0h.59a.27.27,0,0,0,.14,0,.07.07,0,0,0,0-.09l-.06-.17Z"/><path class="cls-6" d="M87.44,126.22v.13s0,.09,0,.12a.62.62,0,0,1,0,.08.1.1,0,0,1,0,.06h-2a.1.1,0,0,1,0-.06s0,0,0-.1,0-.13,0-.22v-.29q0-.16,0-.32v-.3q0-.14,0-.23t0-.23,0-.31q0-.17,0-.33t0-.31,0-.23,0-.11a.13.13,0,0,1,0-.07l0,0H86a.09.09,0,0,1,0,.06v.1q0,.09,0,.22t0,.28q0,.16,0,.31v.29q0,.13,0,.21,0,.24,0,.52t0,.6a.54.54,0,0,0,0,.07,0,0,0,0,0,0,0h1.1l.18,0,.14,0s.05,0,0,.06A.82.82,0,0,0,87.44,126.22Z"/><path class="cls-6" d="M89.63,124.37a.23.23,0,0,1,0,.07l-.15.24-.25.37-.25.34-.21.27a.28.28,0,0,0-.06.17q0,.3,0,.49t0,.22a.07.07,0,0,1,0,.05h-.57s0,0,0-.06v-.08s0-.1,0-.16v-.45a.38.38,0,0,0,0-.08.28.28,0,0,0,0-.09l-.21-.27-.26-.35-.24-.34-.15-.23a.25.25,0,0,1,0-.08.29.29,0,0,1,0-.05q0-.11,0-.24t0-.25v-.32a.11.11,0,0,1,0,0h.57a.07.07,0,0,1,0,0s0,.06,0,.13v.46q0,.11,0,.14a.37.37,0,0,0,.07.14l.17.24.22.29.23.27.18-.23.22-.29.18-.26a.41.41,0,0,0,.08-.16s0-.06,0-.14v-.47q0-.11,0-.12a.13.13,0,0,1,0-.05h.57a.13.13,0,0,1,0,.06s0,0,0,.1,0,.11,0,.19,0,.15,0,.23,0,.17,0,.25A.3.3,0,0,1,89.63,124.37Z"/><path class="cls-6" d="M92.49,125.09a1.11,1.11,0,0,1-.2.37.9.9,0,0,1-.31.24,1,1,0,0,1-.4.09h-.84l-.06,0a.12.12,0,0,0,0,.08s0,.08,0,.14,0,.14,0,.22v.21q0,.09,0,.12s0,0,0,.05h-.58s0,0,0-.06,0,0,0-.1,0-.14,0-.23,0-.19,0-.3,0-.22,0-.32,0-.21,0-.3,0-.17,0-.23,0-.14,0-.23,0-.19,0-.3,0-.21,0-.32,0-.21,0-.3,0-.17,0-.23,0-.11,0-.13a.13.13,0,0,1,0-.07l0,0h1.33a1.09,1.09,0,0,1,.44.09,1,1,0,0,1,.35.25,1.14,1.14,0,0,1,.22.37,1.27,1.27,0,0,1,.08.46A1.47,1.47,0,0,1,92.49,125.09Zm-.52-.7a.67.67,0,0,0-.12-.24.63.63,0,0,0-.21-.17.68.68,0,0,0-.32-.07H91l-.21,0-.1,0v.21q0,.08,0,.18t0,.17,0,.14v.07s0,.05,0,.11,0,.11,0,.17,0,.12,0,.17,0,.09,0,.11l0,0,.09,0h.6a.67.67,0,0,0,.28-.05.56.56,0,0,0,.2-.15.62.62,0,0,0,.12-.22.94.94,0,0,0,0-.27A1,1,0,0,0,92,124.39Z"/><path class="cls-6" d="M94.71,123.82l0,.09,0,.11,0,.09s0,0-.08,0a1.39,1.39,0,0,0-.32-.12.75.75,0,0,0-.27,0,.42.42,0,0,0-.2.08.28.28,0,0,0-.11.16.45.45,0,0,0,0,.15.27.27,0,0,0,0,.14.55.55,0,0,0,.15.14,1.34,1.34,0,0,0,.29.14,1,1,0,0,1,.44.31.79.79,0,0,1,.16.5,1,1,0,0,1-.11.47,1,1,0,0,1-.31.34,1.27,1.27,0,0,1-.45.19,1.7,1.7,0,0,1-.55,0s-.07,0-.08,0v-.11a.61.61,0,0,0,0-.13.5.5,0,0,1,0-.1.43.43,0,0,0,0-.1s0-.07,0-.07a1.52,1.52,0,0,0,.72,0,.39.39,0,0,0,.27-.28.61.61,0,0,0,0-.15.31.31,0,0,0-.05-.15.63.63,0,0,0-.15-.15,1.54,1.54,0,0,0-.29-.16,1,1,0,0,1-.35-.24.8.8,0,0,1-.17-.3.86.86,0,0,1,0-.32,1.32,1.32,0,0,1,.06-.3.61.61,0,0,1,.13-.23.92.92,0,0,1,.21-.17,1,1,0,0,1,.26-.11,1.08,1.08,0,0,1,.28,0l.21,0,.22,0,.2.07.15.08s0,0,0,0l0,0Z"/><path class="cls-6" d="M98,125.66a1.63,1.63,0,0,1-.32.52,1.48,1.48,0,0,1-.47.35,1.41,1.41,0,0,1-1.17,0,1.46,1.46,0,0,1-.47-.35,1.65,1.65,0,0,1-.31-.52,1.79,1.79,0,0,1-.11-.64,1.73,1.73,0,0,1,.12-.64,1.7,1.7,0,0,1,.32-.52,1.48,1.48,0,0,1,.47-.35,1.34,1.34,0,0,1,.58-.13,1.36,1.36,0,0,1,.59.13,1.47,1.47,0,0,1,.47.35,1.67,1.67,0,0,1,.32.52,1.77,1.77,0,0,1,.11.64A1.79,1.79,0,0,1,98,125.66Zm-.48-1.06a1.16,1.16,0,0,0-.2-.36,1,1,0,0,0-.3-.25.83.83,0,0,0-.39-.09.8.8,0,0,0-.39.09,1,1,0,0,0-.3.25,1.12,1.12,0,0,0-.2.36,1.3,1.3,0,0,0,0,.84,1.15,1.15,0,0,0,.2.36,1,1,0,0,0,.3.25.86.86,0,0,0,.78,0,1,1,0,0,0,.3-.25,1.16,1.16,0,0,0,.2-.36,1.26,1.26,0,0,0,.07-.42A1.25,1.25,0,0,0,97.56,124.6Z"/><path class="cls-7" d="M79.59,128.72h0a.39.39,0,0,1,.12-.12.29.29,0,0,1,.16,0,.32.32,0,0,1,.18,0,.42.42,0,0,1,.13.14.37.37,0,0,1,.14-.14.37.37,0,0,1,.19-.05.35.35,0,0,1,.17,0,.29.29,0,0,1,.11.1.42.42,0,0,1,.06.15.92.92,0,0,1,0,.17v.63h-.2V129a1,1,0,0,0,0-.11.33.33,0,0,0,0-.1.19.19,0,0,0-.06-.07.17.17,0,0,0-.11,0,.19.19,0,0,0-.13,0,.24.24,0,0,0-.07.1.42.42,0,0,0,0,.13s0,.09,0,.13v.52H80v-.56s0-.07,0-.11a.44.44,0,0,0,0-.11.2.2,0,0,0-.06-.09.16.16,0,0,0-.11,0,.2.2,0,0,0-.13,0,.23.23,0,0,0-.07.1.42.42,0,0,0,0,.13s0,.09,0,.13v.52h-.2v-1.06h.2Z"/><path class="cls-7" d="M82.19,129.64H82v-.17h0a.49.49,0,0,1-.15.15.39.39,0,0,1-.21.06.48.48,0,0,1-.22,0,.47.47,0,0,1-.16-.13.56.56,0,0,1-.1-.18.7.7,0,0,1,0-.22.63.63,0,0,1,0-.21.55.55,0,0,1,.1-.18.49.49,0,0,1,.16-.12.46.46,0,0,1,.21,0,.4.4,0,0,1,.21.06.5.5,0,0,1,.16.15h0v-.18h.2Zm-.54-.15a.34.34,0,0,0,.15,0,.32.32,0,0,0,.11-.08.37.37,0,0,0,.07-.12.47.47,0,0,0,0-.15.47.47,0,0,0,0-.15.36.36,0,0,0-.07-.12.32.32,0,0,0-.11-.08.34.34,0,0,0-.15,0,.31.31,0,0,0-.14,0,.32.32,0,0,0-.11.08.38.38,0,0,0-.07.12.45.45,0,0,0,0,.14.46.46,0,0,0,0,.14.41.41,0,0,0,.06.12.3.3,0,0,0,.1.09A.31.31,0,0,0,81.65,129.5Z"/><path class="cls-7" d="M82.73,128.76h0a.34.34,0,0,1,.11-.15.29.29,0,0,1,.18-.05h.09l.08,0-.09.19-.06,0H83a.22.22,0,0,0-.13,0,.22.22,0,0,0-.07.09.4.4,0,0,0,0,.12,1.1,1.1,0,0,0,0,.13v.52h-.2v-1.06h.2Z"/><path class="cls-7" d="M83.52,128a.13.13,0,0,1,.1,0,.14.14,0,0,1,0,.1.13.13,0,0,1,0,.1.15.15,0,0,1-.2,0,.13.13,0,0,1,0-.1.14.14,0,0,1,0-.1A.13.13,0,0,1,83.52,128Zm.1,1.69h-.2v-1.06h.2Z"/><path class="cls-7" d="M84.22,128.73h0a.31.31,0,0,1,.13-.13.4.4,0,0,1,.18,0,.43.43,0,0,1,.18,0,.28.28,0,0,1,.12.1.4.4,0,0,1,.06.15.91.91,0,0,1,0,.18v.63h-.2V129a1,1,0,0,0,0-.12.24.24,0,0,0,0-.1.16.16,0,0,0-.07-.06l-.12,0a.25.25,0,0,0-.15,0,.23.23,0,0,0-.08.1.45.45,0,0,0,0,.14s0,.1,0,.15v.49H84v-1.06h.2Z"/><path class="cls-7" d="M85.39,129.15a.39.39,0,0,0,0,.13.35.35,0,0,0,.06.11.32.32,0,0,0,.1.08.29.29,0,0,0,.13,0,.3.3,0,0,0,.19-.06.58.58,0,0,0,.13-.15l.17.1a.54.54,0,0,1-.21.21.56.56,0,0,1-.29.08.53.53,0,0,1-.22,0,.48.48,0,0,1-.16-.12.53.53,0,0,1-.1-.18.65.65,0,0,1,0-.22.75.75,0,0,1,0-.23.52.52,0,0,1,.1-.18.44.44,0,0,1,.16-.12.55.55,0,0,1,.23,0,.51.51,0,0,1,.22,0,.43.43,0,0,1,.15.12.52.52,0,0,1,.09.18.77.77,0,0,1,0,.22v0ZM86,129a.32.32,0,0,0-.09-.19.28.28,0,0,0-.2-.07.29.29,0,0,0-.2.07.32.32,0,0,0-.1.19Z"/><path class="cls-7" d="M87.3,128a.13.13,0,0,1,.1,0,.14.14,0,0,1,0,.1.13.13,0,0,1,0,.1.15.15,0,0,1-.2,0,.13.13,0,0,1,0-.1.14.14,0,0,1,0-.1A.13.13,0,0,1,87.3,128Zm.1,1.69h-.2v-1.06h.2Z"/><path class="cls-7" d="M88,128.73h0a.31.31,0,0,1,.13-.13.4.4,0,0,1,.18,0,.43.43,0,0,1,.18,0,.28.28,0,0,1,.12.1.4.4,0,0,1,.06.15.91.91,0,0,1,0,.18v.63h-.2V129a1,1,0,0,0,0-.12.24.24,0,0,0,0-.1.16.16,0,0,0-.07-.06l-.12,0a.25.25,0,0,0-.15,0,.22.22,0,0,0-.08.1.44.44,0,0,0,0,.14s0,.1,0,.15v.49h-.2v-1.06H88Z"/><path class="cls-7" d="M89.46,128.83a.18.18,0,0,0-.05-.07.13.13,0,0,0-.08,0,.11.11,0,0,0-.08,0,.09.09,0,0,0,0,.07.09.09,0,0,0,0,.06l.06,0,.08,0,.09,0,.09,0,.08.06a.29.29,0,0,1,.05.08.27.27,0,0,1,0,.11.33.33,0,0,1,0,.14.36.36,0,0,1-.08.11.35.35,0,0,1-.12.07l-.14,0-.11,0-.11,0-.09-.07a.31.31,0,0,1-.06-.1l.17-.08a.34.34,0,0,0,.08.1.17.17,0,0,0,.12,0,.17.17,0,0,0,.11,0,.14.14,0,0,0,0-.11.1.1,0,0,0,0-.07l-.06,0-.2-.11-.08,0-.06-.06a.22.22,0,0,1,0-.07.27.27,0,0,1,0-.09.29.29,0,0,1,0-.12.32.32,0,0,1,.07-.1l.1-.07.12,0a.3.3,0,0,1,.17,0,.35.35,0,0,1,.12.14Z"/><path class="cls-7" d="M90.21,129.64H90v-.87h-.11v-.19H90v-.41h.2v.41h.2v.19h-.2Z"/><path class="cls-7" d="M90.8,128.76h0a.34.34,0,0,1,.11-.15.29.29,0,0,1,.18-.05h.09l.08,0-.09.19-.06,0H91a.22.22,0,0,0-.13,0,.22.22,0,0,0-.07.09.4.4,0,0,0,0,.12,1.1,1.1,0,0,0,0,.13v.52h-.2v-1.06h.2Z"/><path class="cls-7" d="M91.63,128.58v.59a.69.69,0,0,0,0,.12.29.29,0,0,0,0,.1.2.2,0,0,0,.07.07.3.3,0,0,0,.24,0,.2.2,0,0,0,.07-.07.29.29,0,0,0,0-.1.7.7,0,0,0,0-.12v-.59h.2v.61a.71.71,0,0,1,0,.2.42.42,0,0,1-.08.15.36.36,0,0,1-.14.1.6.6,0,0,1-.41,0,.36.36,0,0,1-.14-.1.41.41,0,0,1-.08-.15.71.71,0,0,1,0-.2v-.61Z"/><path class="cls-7" d="M92.86,128.72h0a.39.39,0,0,1,.12-.12.29.29,0,0,1,.16,0,.32.32,0,0,1,.18,0,.42.42,0,0,1,.13.14.37.37,0,0,1,.14-.14.37.37,0,0,1,.19-.05.35.35,0,0,1,.17,0,.29.29,0,0,1,.11.1.42.42,0,0,1,.06.15.92.92,0,0,1,0,.17v.63h-.2V129a1,1,0,0,0,0-.11.32.32,0,0,0,0-.1.19.19,0,0,0-.06-.07.17.17,0,0,0-.11,0,.19.19,0,0,0-.13,0,.24.24,0,0,0-.07.1.42.42,0,0,0,0,.13s0,.09,0,.13v.52h-.2v-.56s0-.07,0-.11a.45.45,0,0,0,0-.11.2.2,0,0,0-.06-.09.16.16,0,0,0-.11,0,.2.2,0,0,0-.13,0,.23.23,0,0,0-.07.1.42.42,0,0,0,0,.13s0,.09,0,.13v.52h-.2v-1.06h.2Z"/><path class="cls-7" d="M94.58,129.15a.39.39,0,0,0,0,.13.35.35,0,0,0,.06.11.32.32,0,0,0,.1.08.29.29,0,0,0,.13,0,.29.29,0,0,0,.19-.06.58.58,0,0,0,.13-.15l.17.1a.54.54,0,0,1-.21.21.56.56,0,0,1-.29.08.53.53,0,0,1-.22,0,.48.48,0,0,1-.16-.12.52.52,0,0,1-.1-.18.65.65,0,0,1,0-.22.75.75,0,0,1,0-.23.52.52,0,0,1,.1-.18.44.44,0,0,1,.16-.12.55.55,0,0,1,.23,0,.51.51,0,0,1,.22,0,.43.43,0,0,1,.15.12.52.52,0,0,1,.09.18.77.77,0,0,1,0,.22v0Zm.61-.15a.32.32,0,0,0-.09-.19.28.28,0,0,0-.2-.07.29.29,0,0,0-.2.07.32.32,0,0,0-.1.19Z"/><path class="cls-7" d="M95.84,128.73h0a.31.31,0,0,1,.13-.13.4.4,0,0,1,.18,0,.43.43,0,0,1,.18,0,.28.28,0,0,1,.12.1.4.4,0,0,1,.06.15.91.91,0,0,1,0,.18v.63h-.2V129a1,1,0,0,0,0-.12.24.24,0,0,0,0-.1.16.16,0,0,0-.07-.06l-.12,0a.25.25,0,0,0-.15,0,.22.22,0,0,0-.08.1.44.44,0,0,0,0,.14s0,.1,0,.15v.49h-.2v-1.06h.2Z"/><path class="cls-7" d="M97.11,129.64h-.2v-.87H96.8v-.19h.11v-.41h.2v.41h.2v.19h-.2Z"/><path class="cls-7" d="M97.91,128.83a.18.18,0,0,0-.05-.07.13.13,0,0,0-.08,0,.11.11,0,0,0-.08,0,.09.09,0,0,0,0,.07.09.09,0,0,0,0,.06l.06,0,.08,0,.09,0,.09,0,.08.06a.29.29,0,0,1,.05.08.27.27,0,0,1,0,.11.33.33,0,0,1,0,.14.36.36,0,0,1-.08.11.36.36,0,0,1-.12.07l-.14,0-.11,0-.11,0-.09-.07a.31.31,0,0,1-.06-.1l.17-.08a.34.34,0,0,0,.08.1.17.17,0,0,0,.12,0,.17.17,0,0,0,.11,0,.14.14,0,0,0,0-.11.1.1,0,0,0,0-.07l-.06,0-.2-.11-.08,0-.06-.06,0-.07a.27.27,0,0,1,0-.09.3.3,0,0,1,0-.12.32.32,0,0,1,.07-.1l.1-.07.12,0a.3.3,0,0,1,.17,0,.35.35,0,0,1,.12.14Z"/><path class="cls-8" d="M72.39,129.67h-.2v-6.28H78.4v5.16l-.08,0a.87.87,0,0,1-.37.07h0l-.23,0a5.27,5.27,0,0,0-.82-.06,3,3,0,0,0-1.38.28,1.32,1.32,0,0,1-.6.2.4.4,0,0,1-.31-.12.38.38,0,0,1-.07-.11,2.89,2.89,0,0,0-.47.2l-.49.29-.34.2A2,2,0,0,1,72.39,129.67Zm.1-6v5.69a1.57,1.57,0,0,0,.6-.12l.32-.19.5-.3a3.52,3.52,0,0,1,.69-.28l.2-.05v.21a.15.15,0,0,0,0,.09.12.12,0,0,0,.09,0,1,1,0,0,0,.46-.16,3.18,3.18,0,0,1,1.53-.31,5.59,5.59,0,0,1,.87.07l.18,0h0l.16,0v-4.66Z"/><path class="cls-8" d="M75.26,124,75,128.19a6.79,6.79,0,0,1,.88-.26,5.44,5.44,0,0,1,1.61,0,7.85,7.85,0,0,1-1.66-1.69,4.74,4.74,0,0,1-.55-1.57C75.29,124.4,75.26,124,75.26,124Z"/><path class="cls-8" d="M74.91,125.46s-.06.82-.1,1.4-.06,1.37-.06,1.37a1.08,1.08,0,0,0-.57.1,4.48,4.48,0,0,0-.52.29s.24-.81.43-1.28.41-.92.5-1.13S74.91,125.46,74.91,125.46Z"/><circle class="cls-9" cx="85.13" cy="85.43" r="75.12"/><text></text><circle class="cls-10" cx="85.17" cy="85.64" r="62.25"/><circle class="cls-11" cx="85.17" cy="85.43" r="35.43"/><path class="cls-12" d="M85.16,52.39A45.37,45.37,0,0,0,74,65.15,47.6,47.6,0,0,0,68,80.95a53.44,53.44,0,0,0-.22,16.86,71.55,71.55,0,0,0,4.36,16.35l-.66-.45,13.64,0,13.64,0-.66.45a71.55,71.55,0,0,0,4.36-16.35,53.49,53.49,0,0,0-.22-16.86,47.57,47.57,0,0,0-5.94-15.8A45.37,45.37,0,0,0,85.19,52.39a44,44,0,0,1,11.7,12.44,46.68,46.68,0,0,1,6.41,15.94A52,52,0,0,1,103.8,98a72.9,72.9,0,0,1-4.33,16.69l-.17.45h-.49l-13.64,0-13.64,0H71l-.17-.45A72.9,72.9,0,0,1,66.54,98a52.05,52.05,0,0,1,.51-17.22,46.65,46.65,0,0,1,6.41-15.93A44,44,0,0,1,85.16,52.39Z"/></svg>