<?xml version="1.0" encoding="UTF-8" standalone="no"?>
<svg
   xmlns:dc="http://purl.org/dc/elements/1.1/"
   xmlns:cc="http://creativecommons.org/ns#"
   xmlns:rdf="http://www.w3.org/1999/02/22-rdf-syntax-ns#"
   xmlns:svg="http://www.w3.org/2000/svg"
   xmlns="http://www.w3.org/2000/svg"
   xmlns:sodipodi="http://sodipodi.sourceforge.net/DTD/sodipodi-0.dtd"
   xmlns:inkscape="http://www.inkscape.org/namespaces/inkscape"
   id="Capa_1"
   data-name="Capa 1"
   viewBox="0 0 187.67 186.19"
   version="1.1"
   sodipodi:docname="ruleta_centrada.svg"
   inkscape:export-filename="/home/angel/Descargas/Prueba03/Main screen_static_-01.svg.png"
   inkscape:export-xdpi="599.30634"
   inkscape:export-ydpi="599.30634"
   inkscape:version="0.92.2 (5c3e80d, 2017-08-06)">
  <metadata
     id="metadata454">
    <rdf:RDF>
      <cc:Work
         rdf:about="">
        <dc:format>image/svg+xml</dc:format>
        <dc:type
           rdf:resource="http://purl.org/dc/dcmitype/StillImage" />
        <dc:title>Main screen_static_</dc:title>
      </cc:Work>
    </rdf:RDF>
  </metadata>
  <sodipodi:namedview
     pagecolor="#ffffff"
     bordercolor="#666666"
     borderopacity="1"
     objecttolerance="10"
     gridtolerance="10"
     guidetolerance="10"
     inkscape:pageopacity="0"
     inkscape:pageshadow="2"
     inkscape:window-width="1366"
     inkscape:window-height="694"
     id="namedview452"
     showgrid="true"
     inkscape:zoom="2.72"
     inkscape:cx="94.570289"
     inkscape:cy="91.624413"
     inkscape:window-x="0"
     inkscape:window-y="25"
     inkscape:window-maximized="1"
     inkscape:current-layer="Capa_1">
    <inkscape:grid
       type="xygrid"
       id="grid475" />
  </sodipodi:namedview>
  <defs
     id="defs25">
    <style
       id="style2">.cls-1,.cls-11,.cls-12,.cls-13,.cls-14,.cls-15,.cls-16,.cls-17,.cls-18,.cls-2,.cls-3,.cls-4,.cls-5,.cls-6,.cls-8{fill:none;}.cls-2{stroke:#1a1e25;stroke-width:16px;}.cls-10,.cls-11,.cls-12,.cls-13,.cls-14,.cls-15,.cls-16,.cls-17,.cls-18,.cls-2,.cls-3,.cls-4,.cls-5,.cls-6,.cls-8,.cls-9{stroke-miterlimit:10;}.cls-3{stroke:#c22e24;}.cls-3,.cls-4,.cls-8{stroke-width:8px;}.cls-4{stroke:#81ae38;}.cls-10,.cls-11,.cls-12,.cls-15,.cls-16,.cls-17,.cls-5,.cls-6,.cls-9{stroke:#fff;}.cls-6{stroke-width:0.5px;}.cls-10,.cls-7,.cls-9{fill:#fff;}.cls-8{opacity:0.3;stroke:url(#Degradado_sin_nombre_3);}.cls-9{font-size:6.5px;font-family:PirulenRg-Regular, Pirulen;}.cls-10,.cls-9{stroke-width:0.3px;}.cls-11,.cls-16{stroke-width:0.8px;}.cls-12,.cls-17{stroke-width:0.32px;}.cls-13{stroke:#070308;}.cls-14,.cls-18{stroke-linecap:round;}.cls-14{stroke-width:9px;stroke:url(#Degradado_sin_nombre_97);}.cls-15{stroke-width:1.7px;opacity:0.8;}.cls-16,.cls-17{opacity:0.6;}.cls-18{stroke-width:1.5px;stroke:url(#Degradado_sin_nombre_102);}</style>
    <linearGradient
       id="Degradado_sin_nombre_3"
       x1="159.84"
       y1="54.02"
       x2="26.81"
       y2="130.83"
       gradientUnits="userSpaceOnUse">
      <stop
         offset="0"
         stop-color="#4e4e4e"
         id="stop4" />
      <stop
         offset="0.47"
         stop-color="#464646"
         id="stop6" />
      <stop
         offset="1"
         stop-color="#363636"
         id="stop8" />
    </linearGradient>
    <radialGradient
       id="Degradado_sin_nombre_97"
       cx="93.33"
       cy="92.43"
       r="85.29"
       gradientUnits="userSpaceOnUse">
      <stop
         offset="0"
         stop-color="#4e4e4e"
         stop-opacity="0"
         id="stop11" />
      <stop
         offset="0.5"
         stop-color="#464646"
         stop-opacity="0.1"
         id="stop13" />
      <stop
         offset="0.89"
         stop-color="#2b2b2b"
         stop-opacity="0.41"
         id="stop15" />
      <stop
         offset="1"
         stop-color="#1f1f1f"
         stop-opacity="0.55"
         id="stop17" />
    </radialGradient>
    <linearGradient
       id="Degradado_sin_nombre_102"
       x1="93.33"
       y1="5.93"
       x2="93.33"
       y2="178.92"
       gradientUnits="userSpaceOnUse">
      <stop
         offset="0"
         stop-color="#363636"
         id="stop20" />
      <stop
         offset="1"
         stop-color="#1f1f1f"
         id="stop22" />
    </linearGradient>
  </defs>
  <title
     id="title27">Main screen_static_</title>
  <circle
     class="cls-1"
     cx="93.33"
     cy="92.43"
     r="73.7"
     id="circle29" />
  <circle
     class="cls-2"
     cx="93.33"
     cy="92.43"
     r="77.24"
     id="circle31" />
  <text
     id="text61" />
  <text
     id="text111" />
  <text
     id="text113" />
  <text
     id="text169" />
  <text
     class="cls-9"
     transform="translate(89.96 21.96)"
     id="text229">N</text>
  <path
     class="cls-7"
     d="M124.4,29l.34-.59L127.4,30a.81.81,0,0,0,.41.13.4.4,0,0,0,.33-.25l.29-.5a.31.31,0,0,0,0-.34.91.91,0,0,0-.32-.29l-2.49-1.44.34-.59,2.48,1.43a.76.76,0,0,0,.41.14.31.31,0,0,0,.24-.18l.2-.34a.31.31,0,0,0,0-.29.76.76,0,0,0-.32-.28l-2.65-1.53.34-.59,2.65,1.53a2.69,2.69,0,0,1,.53.38,1.17,1.17,0,0,1,.28.39.75.75,0,0,1,.05.39,1,1,0,0,1-.14.4l-.17.3a.85.85,0,0,1-.38.36.62.62,0,0,1-.47,0,.94.94,0,0,1,.25.43.69.69,0,0,1-.11.52l-.37.65a1,1,0,0,1-.25.29.76.76,0,0,1-.36.16,1.26,1.26,0,0,1-.49,0,2.6,2.6,0,0,1-.65-.28Z"
     id="path231" />
  <path
     class="cls-7"
     d="M130.24,32.39a2.35,2.35,0,0,1-.53-.4,1.23,1.23,0,0,1-.27-.42.86.86,0,0,1,0-.43,1.23,1.23,0,0,1,.16-.43l1.18-2a1.23,1.23,0,0,1,.29-.35.86.86,0,0,1,.39-.18,1.21,1.21,0,0,1,.5,0,2.34,2.34,0,0,1,.62.26l1.86,1.08a2.37,2.37,0,0,1,.53.4,1.21,1.21,0,0,1,.27.42.85.85,0,0,1,0,.43,1.22,1.22,0,0,1-.16.43l-1.18,2a1.24,1.24,0,0,1-.29.35.85.85,0,0,1-.39.18,1.2,1.2,0,0,1-.5,0,2.35,2.35,0,0,1-.62-.26Zm4.1-1.65c.14-.24,0-.46-.28-.65L132.19,29c-.33-.19-.57-.17-.71.08l-1.19,2.06c-.14.24,0,.46.28.65l1.86,1.08q.5.29.71-.08Z"
     id="path233" />
  <path
     class="cls-7"
     d="M152.4,53.92a2.38,2.38,0,0,1-.26-.61,1.23,1.23,0,0,1,0-.5.86.86,0,0,1,.18-.39,1.23,1.23,0,0,1,.35-.29l2-1.18a1.25,1.25,0,0,1,.43-.16.88.88,0,0,1,.43,0,1.21,1.21,0,0,1,.42.27,2.34,2.34,0,0,1,.4.53l1.77,3.06-.59.34L155.78,52q-.29-.5-.65-.29l-.46.26,1.44,2.5a2.35,2.35,0,0,1,.26.62,1.21,1.21,0,0,1,0,.5.84.84,0,0,1-.18.39,1.22,1.22,0,0,1-.35.29l-.64.37a1.23,1.23,0,0,1-.43.16.85.85,0,0,1-.43,0,1.22,1.22,0,0,1-.42-.27,2.35,2.35,0,0,1-.4-.53Zm3,1.57c.24-.14.27-.38.08-.71l-1.44-2.5-1,.59q-.37.21-.08.71l1.16,2c.19.33.41.42.65.28Z"
     id="path235" />
  <path
     class="cls-7"
     d="M155.37,59.07a2.34,2.34,0,0,1-.26-.61,1.2,1.2,0,0,1,0-.5.85.85,0,0,1,.18-.39,1.24,1.24,0,0,1,.35-.29l2-1.18a1.25,1.25,0,0,1,.43-.16.88.88,0,0,1,.43,0,1.22,1.22,0,0,1,.42.27,2.4,2.4,0,0,1,.4.53l1.08,1.86a2.35,2.35,0,0,1,.26.62,1.21,1.21,0,0,1,0,.5.85.85,0,0,1-.18.39,1.22,1.22,0,0,1-.35.29l-2,1.18a1.21,1.21,0,0,1-.43.16.84.84,0,0,1-.43,0,1.22,1.22,0,0,1-.42-.27,2.38,2.38,0,0,1-.4-.53Zm4.37.62c.24-.14.27-.38.08-.71l-1.08-1.86q-.29-.5-.65-.29L156,58q-.37.21-.08.71L157,60.59q.29.5.65.28Z"
     id="path237" />
  <path
     class="cls-7"
     d="M157.4,122.35l3.41,2-.16-.46.46-.79.43,1.27-.6,1-4-2.29Z"
     id="path239" />
  <path
     class="cls-7"
     d="M156.58,123.76l1.45.84a1.26,1.26,0,0,1,.35.29.86.86,0,0,1,.17.39,1.21,1.21,0,0,1,0,.5,2.37,2.37,0,0,1-.26.61l-.93,1.61q-.29.5.08.71l.24.14q.37.21.65-.28l1.52-2.64.59.34-1.53,2.64a2.32,2.32,0,0,1-.4.53,1.2,1.2,0,0,1-.42.27.84.84,0,0,1-.43,0,1.21,1.21,0,0,1-.43-.16l-.23-.13a1.25,1.25,0,0,1-.35-.29.85.85,0,0,1-.18-.39,1.21,1.21,0,0,1,0-.5,2.37,2.37,0,0,1,.26-.61l.93-1.61q.29-.5-.08-.71l-.87-.5-1.93,3.35-.58-.34Z"
     id="path241" />
  <path
     class="cls-7"
     d="M153.12,129.76a2.35,2.35,0,0,1,.4-.53,1.22,1.22,0,0,1,.42-.27.87.87,0,0,1,.43,0,1.24,1.24,0,0,1,.43.16l2,1.18a1.24,1.24,0,0,1,.35.29.87.87,0,0,1,.18.39,1.21,1.21,0,0,1,0,.5,2.35,2.35,0,0,1-.26.62L156,133.92a2.35,2.35,0,0,1-.4.53,1.21,1.21,0,0,1-.42.27.86.86,0,0,1-.43,0,1.2,1.2,0,0,1-.43-.16l-2-1.18a1.23,1.23,0,0,1-.35-.29.85.85,0,0,1-.18-.39,1.23,1.23,0,0,1,0-.5,2.34,2.34,0,0,1,.26-.61Zm1.65,4.1q.37.21.65-.28l1.08-1.86q.29-.5-.08-.71l-2.06-1.19q-.37-.21-.65.28L152.63,132q-.29.5.08.71Z"
     id="path243" />
  <path
     class="cls-7"
     d="M133.73,150.41l2,3.41.09-.47.79-.46-.27,1.32-1,.6-2.29-4Z"
     id="path245" />
  <path
     class="cls-7"
     d="M132.27,151.25l.34.59-2.83,1.63q-.5.29-.28.65l.41.71q.21.37.71.08l2.83-1.63,1.12,1.94-3.95,2.28-.34-.58,3.2-1.85-.44-.77-2.08,1.2a2.3,2.3,0,0,1-.62.26,1.21,1.21,0,0,1-.5,0,.85.85,0,0,1-.39-.18,1.25,1.25,0,0,1-.29-.35l-.4-.7a1.25,1.25,0,0,1-.16-.43.85.85,0,0,1,0-.43,1.2,1.2,0,0,1,.27-.42,2.32,2.32,0,0,1,.53-.4Z"
     id="path247" />
  <path
     class="cls-7"
     d="M126.33,154.68a2.34,2.34,0,0,1,.62-.26,1.21,1.21,0,0,1,.5,0,.86.86,0,0,1,.39.18,1.22,1.22,0,0,1,.29.35l1.18,2a1.22,1.22,0,0,1,.16.43.87.87,0,0,1,0,.43,1.22,1.22,0,0,1-.27.42,2.32,2.32,0,0,1-.53.4l-1.86,1.08a2.31,2.31,0,0,1-.62.26,1.21,1.21,0,0,1-.5,0,.85.85,0,0,1-.39-.18,1.25,1.25,0,0,1-.29-.35l-1.18-2a1.22,1.22,0,0,1-.16-.43.86.86,0,0,1,0-.43,1.22,1.22,0,0,1,.27-.42,2.38,2.38,0,0,1,.53-.4Zm-.62,4.37q.21.37.71.08l1.86-1.08q.5-.29.28-.65l-1.19-2.06q-.21-.37-.71-.08l-1.86,1.08q-.5.29-.28.65Z"
     id="path249" />
  <path
     class="cls-10"
     d="M163.79,90.21h4.58v4.71h-.68V91.07h-1.14v3.65h-.68V91.07h-1.4v3.84h-.68Z"
     id="path251" />
  <path
     class="cls-10"
     d="M95.86,162.89v.68h-4q-.57,0-.57.42v.58q0,.42.57.42h2.69a2.37,2.37,0,0,1,.66.08,1.2,1.2,0,0,1,.45.23.85.85,0,0,1,.25.35,1.23,1.23,0,0,1,.08.45v.27a1.23,1.23,0,0,1-.08.45.86.86,0,0,1-.25.35,1.2,1.2,0,0,1-.45.23,2.33,2.33,0,0,1-.66.08H90.69v-.68h3.87q.57,0,.57-.42v-.28q0-.42-.57-.42H91.88a2.37,2.37,0,0,1-.66-.08,1.21,1.21,0,0,1-.45-.23.85.85,0,0,1-.25-.35,1.23,1.23,0,0,1-.08-.45V164a1.23,1.23,0,0,1,.08-.45.85.85,0,0,1,.25-.35,1.21,1.21,0,0,1,.45-.23,2.37,2.37,0,0,1,.66-.08Z"
     id="path253" />
  <path
     class="cls-10"
     d="M22.86,90.84l-3.51,1.59L22.86,94v.63l-4.58,2.11v-.83l3.51-1.59-3.51-1.61V92.1l3.51-1.59-3.51-1.61v-.84l4.58,2.11Z"
     id="path255" />
  <line
     class="cls-11"
     x1="107.05"
     y1="14.59"
     x2="108.09"
     y2="8.68"
     id="line257" />
  <line
     class="cls-11"
     x1="120.36"
     y1="18.15"
     x2="122.41"
     y2="12.51"
     id="line259" />
  <line
     class="cls-11"
     x1="132.85"
     y1="23.97"
     x2="135.85"
     y2="18.78"
     id="line261" />
  <line
     class="cls-11"
     x1="144.13"
     y1="31.88"
     x2="147.99"
     y2="27.28"
     id="line263" />
  <line
     class="cls-11"
     x1="153.87"
     y1="41.62"
     x2="158.47"
     y2="37.76"
     id="line265" />
  <line
     class="cls-11"
     x1="161.78"
     y1="52.91"
     x2="166.97"
     y2="49.91"
     id="line267" />
  <line
     class="cls-11"
     x1="167.6"
     y1="65.39"
     x2="173.24"
     y2="63.34"
     id="line269" />
  <line
     class="cls-11"
     x1="171.17"
     y1="78.7"
     x2="177.07"
     y2="77.66"
     id="line271" />
  <line
     class="cls-11"
     x1="171.17"
     y1="106.15"
     x2="177.07"
     y2="107.19"
     id="line273" />
  <line
     class="cls-11"
     x1="167.6"
     y1="119.46"
     x2="173.24"
     y2="121.51"
     id="line275" />
  <line
     class="cls-11"
     x1="161.78"
     y1="131.95"
     x2="166.97"
     y2="134.95"
     id="line277" />
  <line
     class="cls-11"
     x1="153.87"
     y1="143.23"
     x2="158.47"
     y2="147.09"
     id="line279" />
  <line
     class="cls-11"
     x1="144.13"
     y1="152.97"
     x2="147.99"
     y2="157.57"
     id="line281" />
  <line
     class="cls-11"
     x1="132.85"
     y1="160.88"
     x2="135.85"
     y2="166.07"
     id="line283" />
  <line
     class="cls-11"
     x1="120.36"
     y1="166.7"
     x2="122.41"
     y2="172.34"
     id="line285" />
  <line
     class="cls-11"
     x1="107.05"
     y1="170.26"
     x2="108.09"
     y2="176.17"
     id="line287" />
  <line
     class="cls-11"
     x1="79.6"
     y1="170.26"
     x2="78.56"
     y2="176.17"
     id="line289" />
  <line
     class="cls-11"
     x1="66.29"
     y1="166.7"
     x2="64.24"
     y2="172.34"
     id="line291" />
  <line
     class="cls-11"
     x1="53.81"
     y1="160.88"
     x2="50.81"
     y2="166.07"
     id="line293" />
  <line
     class="cls-12"
     x1="100.39"
     y1="11.69"
     x2="100.74"
     y2="7.71"
     id="line295" />
  <line
     class="cls-12"
     x1="114.3"
     y1="14.15"
     x2="115.34"
     y2="10.28"
     id="line297" />
  <line
     class="cls-12"
     x1="127.58"
     y1="18.98"
     x2="129.27"
     y2="15.35"
     id="line299" />
  <line
     class="cls-12"
     x1="133.85"
     y1="22.24"
     x2="135.85"
     y2="18.78"
     id="line301" />
  <line
     class="cls-12"
     x1="139.81"
     y1="26.04"
     x2="142.1"
     y2="22.76"
     id="line303" />
  <line
     class="cls-12"
     x1="150.63"
     y1="35.12"
     x2="153.46"
     y2="32.29"
     id="line305" />
  <line
     class="cls-12"
     x1="159.71"
     y1="45.94"
     x2="162.99"
     y2="43.65"
     id="line307" />
  <line
     class="cls-12"
     x1="163.51"
     y1="51.91"
     x2="166.97"
     y2="49.91"
     id="line309" />
  <line
     class="cls-12"
     x1="166.77"
     y1="58.18"
     x2="170.4"
     y2="56.49"
     id="line311" />
  <line
     class="cls-12"
     x1="171.61"
     y1="71.45"
     x2="175.47"
     y2="70.42"
     id="line313" />
  <line
     class="cls-12"
     x1="171.61"
     y1="113.4"
     x2="175.47"
     y2="114.44"
     id="line315" />
  <line
     class="cls-12"
     x1="166.77"
     y1="126.67"
     x2="170.4"
     y2="128.36"
     id="line317" />
  <line
     class="cls-12"
     x1="163.51"
     y1="132.95"
     x2="166.97"
     y2="134.95"
     id="line319" />
  <line
     class="cls-12"
     x1="159.71"
     y1="138.91"
     x2="162.99"
     y2="141.2"
     id="line321" />
  <line
     class="cls-12"
     x1="150.63"
     y1="149.73"
     x2="153.46"
     y2="152.56"
     id="line323" />
  <line
     class="cls-12"
     x1="139.81"
     y1="158.81"
     x2="142.1"
     y2="162.09"
     id="line325" />
  <line
     class="cls-12"
     x1="133.85"
     y1="162.61"
     x2="135.85"
     y2="166.07"
     id="line327" />
  <line
     class="cls-12"
     x1="127.58"
     y1="165.87"
     x2="129.27"
     y2="169.5"
     id="line329" />
  <line
     class="cls-12"
     x1="114.3"
     y1="170.7"
     x2="115.34"
     y2="174.57"
     id="line331" />
  <line
     class="cls-12"
     x1="100.39"
     y1="173.16"
     x2="100.74"
     y2="177.14"
     id="line333" />
  <line
     class="cls-12"
     x1="86.26"
     y1="173.16"
     x2="85.91"
     y2="177.14"
     id="line335" />
  <line
     class="cls-12"
     x1="72.35"
     y1="170.7"
     x2="71.32"
     y2="174.57"
     id="line337" />
  <line
     class="cls-12"
     x1="59.08"
     y1="165.87"
     x2="57.39"
     y2="169.5"
     id="line339" />
  <line
     class="cls-12"
     x1="52.81"
     y1="162.61"
     x2="50.81"
     y2="166.07"
     id="line341" />
  <line
     class="cls-12"
     x1="86.26"
     y1="11.69"
     x2="85.91"
     y2="7.71"
     id="line343" />
  <line
     class="cls-5"
     x1="132.85"
     y1="23.97"
     x2="135.85"
     y2="18.78"
     id="line347" />
  <line
     class="cls-5"
     x1="161.78"
     y1="52.91"
     x2="166.97"
     y2="49.91"
     id="line349" />
  <line
     class="cls-5"
     x1="161.78"
     y1="131.95"
     x2="166.97"
     y2="134.95"
     id="line351" />
  <line
     class="cls-5"
     x1="132.85"
     y1="160.88"
     x2="135.85"
     y2="166.07"
     id="line353" />
  <line
     class="cls-5"
     x1="53.81"
     y1="160.88"
     x2="50.81"
     y2="166.07"
     id="line355" />
  <path
     class="cls-7"
     d="M64.06,156.88l-.84,1.45a1.25,1.25,0,0,1-.29.35.87.87,0,0,1-.39.18,1.21,1.21,0,0,1-.5,0,2.35,2.35,0,0,1-.61-.26l-1.61-.93q-.5-.29-.71.08L59,158q-.21.37.28.65l2.64,1.52-.34.58-2.64-1.52a2.36,2.36,0,0,1-.53-.4,1.22,1.22,0,0,1-.27-.42.86.86,0,0,1,0-.43,1.23,1.23,0,0,1,.16-.43l.13-.23a1.22,1.22,0,0,1,.29-.35.86.86,0,0,1,.39-.18,1.21,1.21,0,0,1,.5,0,2.3,2.3,0,0,1,.61.26l1.61.93q.5.29.71-.08L63,157l-3.35-1.93.34-.58Z"
     id="path357" />
  <path
     class="cls-7"
     d="M58.55,153.7l-2,3.41.46-.16.79.46-1.27.43-1-.6,2.29-4Z"
     id="path359" />
  <path
     class="cls-7"
     d="M55.85,152.14a2.34,2.34,0,0,1,.53.4,1.22,1.22,0,0,1,.27.42.86.86,0,0,1,0,.43,1.25,1.25,0,0,1-.16.43l-1.18,2a1.24,1.24,0,0,1-.29.35.85.85,0,0,1-.39.18,1.23,1.23,0,0,1-.5,0,2.35,2.35,0,0,1-.62-.26L51.7,155a2.33,2.33,0,0,1-.53-.4,1.22,1.22,0,0,1-.27-.42.85.85,0,0,1,0-.43,1.2,1.2,0,0,1,.16-.43l1.18-2a1.21,1.21,0,0,1,.29-.35.86.86,0,0,1,.39-.18,1.23,1.23,0,0,1,.5,0,2.37,2.37,0,0,1,.61.26Zm-4.1,1.65q-.21.37.28.65l1.86,1.08q.5.29.71-.08l1.19-2.06q.21-.37-.28-.65l-1.86-1.08q-.5-.29-.71.08Z"
     id="path361" />
  <path
     class="cls-7"
     d="M36.6,135l-1.45.84a1.25,1.25,0,0,1-.43.16.86.86,0,0,1-.43,0,1.2,1.2,0,0,1-.42-.27,2.35,2.35,0,0,1-.4-.53l-.93-1.61q-.29-.5-.65-.29l-.24.14c-.24.14-.27.38-.08.71l1.52,2.64-.59.34L31,134.44a2.35,2.35,0,0,1-.26-.62,1.21,1.21,0,0,1,0-.5.86.86,0,0,1,.18-.39,1.24,1.24,0,0,1,.35-.29l.23-.13a1.25,1.25,0,0,1,.43-.16.86.86,0,0,1,.43,0,1.19,1.19,0,0,1,.42.27,2.35,2.35,0,0,1,.4.53l.93,1.61q.29.5.65.28l.87-.5-1.93-3.35.58-.34Z"
     id="path363" />
  <path
     class="cls-7"
     d="M31.94,126.92l-.68.39,2.06,3.57-.47.27-4-.47-.47-.81,3.87.46-1.55-2.69L28,129.21l-.43-.75,2.7-1.56-.24-.42.59-.34.24.42.68-.39Z"
     id="path365" />
  <path
     class="cls-7"
     d="M30.28,124a2.35,2.35,0,0,1,.26.62,1.23,1.23,0,0,1,0,.5.87.87,0,0,1-.18.39,1.24,1.24,0,0,1-.35.29L28,127a1.23,1.23,0,0,1-.43.16.87.87,0,0,1-.43,0,1.21,1.21,0,0,1-.42-.27,2.3,2.3,0,0,1-.4-.53l-1.08-1.86a2.35,2.35,0,0,1-.26-.62,1.21,1.21,0,0,1,0-.5.85.85,0,0,1,.18-.39,1.24,1.24,0,0,1,.35-.29l2-1.18a1.22,1.22,0,0,1,.43-.16.85.85,0,0,1,.43,0,1.22,1.22,0,0,1,.42.27,2.33,2.33,0,0,1,.4.53Zm-4.37-.62q-.37.21-.08.71L26.9,126q.29.5.65.28l2.06-1.19q.36-.21.08-.71l-1.08-1.86q-.29-.5-.65-.28Z"
     id="path367" />
  <path
     class="cls-7"
     d="M28.11,64.49l-.58-.34,1.53-2.66a.81.81,0,0,0,.13-.41.4.4,0,0,0-.25-.33l-.5-.29a.32.32,0,0,0-.34,0,.9.9,0,0,0-.29.32l-1.44,2.49-.59-.34,1.43-2.48a.77.77,0,0,0,.14-.41.31.31,0,0,0-.18-.24l-.34-.2a.31.31,0,0,0-.29,0,.76.76,0,0,0-.29.32l-1.53,2.65-.58-.34,1.53-2.65a2.69,2.69,0,0,1,.38-.53,1.17,1.17,0,0,1,.39-.28.75.75,0,0,1,.39-.06,1.05,1.05,0,0,1,.4.14l.3.17a.85.85,0,0,1,.36.38.62.62,0,0,1,0,.47.93.93,0,0,1,.43-.25.69.69,0,0,1,.52.11l.65.37a1,1,0,0,1,.29.25.75.75,0,0,1,.16.36,1.26,1.26,0,0,1,0,.49,2.6,2.6,0,0,1-.28.65Z"
     id="path369" />
  <path
     class="cls-7"
     d="M31.48,58.65a2.34,2.34,0,0,1-.4.53,1.24,1.24,0,0,1-.42.27.86.86,0,0,1-.43,0,1.23,1.23,0,0,1-.43-.16l-2-1.18a1.23,1.23,0,0,1-.35-.29.85.85,0,0,1-.18-.39,1.21,1.21,0,0,1,0-.5,2.32,2.32,0,0,1,.26-.62l1.08-1.86A2.33,2.33,0,0,1,29,54a1.23,1.23,0,0,1,.42-.27.86.86,0,0,1,.43,0,1.22,1.22,0,0,1,.43.16l2,1.18a1.23,1.23,0,0,1,.35.29.86.86,0,0,1,.18.39,1.23,1.23,0,0,1,0,.5,2.34,2.34,0,0,1-.26.61Zm-1.65-4.1q-.36-.21-.65.28L28.1,56.7q-.29.5.08.71l2.06,1.19q.36.21.65-.28L32,56.45q.29-.5-.08-.71Z"
     id="path371" />
  <path
     class="cls-7"
     d="M34.38,53.63a2.35,2.35,0,0,1-.4.53,1.23,1.23,0,0,1-.42.27.87.87,0,0,1-.43,0,1.24,1.24,0,0,1-.43-.16l-2-1.18a1.24,1.24,0,0,1-.35-.29.86.86,0,0,1-.18-.39,1.19,1.19,0,0,1,0-.5,2.3,2.3,0,0,1,.26-.62l1.08-1.86a2.32,2.32,0,0,1,.4-.53,1.21,1.21,0,0,1,.42-.27.84.84,0,0,1,.43,0,1.22,1.22,0,0,1,.43.16l2,1.18a1.24,1.24,0,0,1,.35.29.86.86,0,0,1,.18.39,1.23,1.23,0,0,1,0,.5,2.34,2.34,0,0,1-.26.61Zm-1.65-4.1q-.37-.21-.65.28L31,51.68q-.29.5.08.71l2.06,1.19q.36.21.65-.28l1.08-1.86q.29-.5-.08-.71Z"
     id="path373" />
  <path
     class="cls-7"
     d="M51,35.53l-.34-.58,2.66-1.53a.82.82,0,0,0,.32-.3.4.4,0,0,0,0-.41l-.29-.5A.32.32,0,0,0,53,32a.89.89,0,0,0-.41.14l-2.49,1.44L49.81,33l2.48-1.43a.77.77,0,0,0,.32-.28.31.31,0,0,0,0-.29l-.2-.34a.31.31,0,0,0-.24-.18.76.76,0,0,0-.41.14l-2.65,1.53-.34-.58L51.4,30a2.69,2.69,0,0,1,.59-.26,1.19,1.19,0,0,1,.47,0,.76.76,0,0,1,.37.15,1.05,1.05,0,0,1,.27.32l.17.3a.84.84,0,0,1,.13.51.62.62,0,0,1-.21.42.93.93,0,0,1,.49,0,.69.69,0,0,1,.4.35l.37.65a1.08,1.08,0,0,1,.13.36.77.77,0,0,1,0,.39,1.26,1.26,0,0,1-.28.41,2.56,2.56,0,0,1-.57.42Z"
     id="path375" />
  <path
     class="cls-7"
     d="M55.59,32.9l-.34-.58,2.66-1.53a.81.81,0,0,0,.32-.3.4.4,0,0,0,0-.41l-.29-.5a.31.31,0,0,0-.29-.18.89.89,0,0,0-.41.14L54.7,31l-.34-.59L56.84,29a.76.76,0,0,0,.32-.28.31.31,0,0,0,0-.29l-.2-.34a.31.31,0,0,0-.24-.18.77.77,0,0,0-.41.14l-2.65,1.53-.34-.59L56,27.41a2.68,2.68,0,0,1,.59-.26,1.18,1.18,0,0,1,.47,0,.75.75,0,0,1,.37.15,1,1,0,0,1,.27.32l.17.3a.84.84,0,0,1,.13.51.62.62,0,0,1-.21.42.93.93,0,0,1,.49,0,.69.69,0,0,1,.4.35l.37.65a1,1,0,0,1,.13.36.74.74,0,0,1,0,.39,1.24,1.24,0,0,1-.28.41,2.6,2.6,0,0,1-.57.42Z"
     id="path377" />
  <path
     class="cls-7"
     d="M61.42,29.54a2.37,2.37,0,0,1-.61.26,1.24,1.24,0,0,1-.5,0,.86.86,0,0,1-.39-.18,1.24,1.24,0,0,1-.29-.35l-1.18-2a1.25,1.25,0,0,1-.16-.43.88.88,0,0,1,0-.43A1.21,1.21,0,0,1,58.6,26a2.34,2.34,0,0,1,.53-.4L61,24.5a2.33,2.33,0,0,1,.62-.26,1.21,1.21,0,0,1,.5,0,.86.86,0,0,1,.39.18,1.23,1.23,0,0,1,.29.35l1.18,2a1.21,1.21,0,0,1,.16.43.84.84,0,0,1,0,.43,1.23,1.23,0,0,1-.27.42,2.34,2.34,0,0,1-.53.4ZM62,25.16q-.21-.37-.71-.08l-1.86,1.08q-.5.29-.28.65l1.19,2.06q.21.36.71.08l1.86-1.08q.5-.29.28-.65Z"
     id="path379" />
  <circle
     class="cls-1"
     cx="93.37"
     cy="91.89"
     r="62"
     id="circle381" />
  <circle
     class="cls-14"
     cx="93.33"
     cy="92.43"
     r="80.79"
     id="circle383" />
  <line
     class="cls-15"
     x1="16.33"
     y1="92.39"
     x2="8.33"
     y2="92.39"
     id="line385" />
  <line
     class="cls-15"
     x1="93.33"
     y1="169.39"
     x2="93.33"
     y2="177.39"
     id="line387" />
  <line
     class="cls-15"
     x1="170.33"
     y1="92.39"
     x2="178.33"
     y2="92.39"
     id="line389" />
  <line
     class="cls-15"
     x1="93.33"
     y1="15.39"
     x2="93.33"
     y2="7.39"
     id="line391" />
  <line
     class="cls-16"
     x1="15.49"
     y1="78.7"
     x2="9.58"
     y2="77.66"
     id="line393" />
  <line
     class="cls-17"
     x1="12.59"
     y1="85.36"
     x2="8.61"
     y2="85.01"
     id="line395" />
  <line
     class="cls-17"
     x1="15.05"
     y1="71.45"
     x2="11.18"
     y2="70.42"
     id="line397" />
  <line
     class="cls-15"
     x1="16.33"
     y1="92.39"
     x2="8.33"
     y2="92.39"
     id="line399" />
  <line
     class="cls-16"
     x1="42.52"
     y1="152.97"
     x2="38.66"
     y2="157.57"
     id="line401" />
  <line
     class="cls-16"
     x1="32.78"
     y1="143.23"
     x2="28.18"
     y2="147.09"
     id="line403" />
  <line
     class="cls-16"
     x1="19.05"
     y1="119.46"
     x2="13.42"
     y2="121.51"
     id="line405" />
  <line
     class="cls-17"
     x1="46.84"
     y1="158.81"
     x2="44.55"
     y2="162.09"
     id="line407" />
  <line
     class="cls-17"
     x1="36.02"
     y1="149.73"
     x2="33.19"
     y2="152.56"
     id="line409" />
  <line
     class="cls-17"
     x1="26.94"
     y1="138.91"
     x2="23.67"
     y2="141.2"
     id="line411" />
  <line
     class="cls-17"
     x1="19.88"
     y1="126.67"
     x2="16.25"
     y2="128.36"
     id="line413" />
  <line
     class="cls-16"
     x1="15.49"
     y1="106.15"
     x2="9.58"
     y2="107.19"
     id="line415" />
  <line
     class="cls-17"
     x1="15.05"
     y1="113.4"
     x2="11.18"
     y2="114.44"
     id="line417" />
  <line
     class="cls-17"
     x1="12.59"
     y1="99.49"
     x2="8.61"
     y2="99.84"
     id="line419" />
  <line
     class="cls-16"
     x1="24.88"
     y1="131.95"
     x2="19.68"
     y2="134.95"
     id="line421" />
  <line
     class="cls-16"
     x1="19.05"
     y1="65.39"
     x2="13.42"
     y2="63.34"
     id="line423" />
  <line
     class="cls-16"
     x1="32.78"
     y1="41.62"
     x2="28.18"
     y2="37.76"
     id="line425" />
  <line
     class="cls-17"
     x1="19.88"
     y1="58.18"
     x2="16.25"
     y2="56.49"
     id="line427" />
  <line
     class="cls-17"
     x1="26.94"
     y1="45.94"
     x2="23.67"
     y2="43.65"
     id="line429" />
  <line
     class="cls-16"
     x1="24.88"
     y1="52.91"
     x2="19.68"
     y2="49.91"
     id="line431" />
  <line
     class="cls-16"
     x1="42.52"
     y1="31.88"
     x2="38.66"
     y2="27.28"
     id="line433" />
  <line
     class="cls-16"
     x1="66.29"
     y1="18.15"
     x2="64.24"
     y2="12.51"
     id="line435" />
  <line
     class="cls-16"
     x1="79.6"
     y1="14.59"
     x2="78.56"
     y2="8.68"
     id="line437" />
  <line
     class="cls-17"
     x1="36.02"
     y1="35.12"
     x2="33.19"
     y2="32.29"
     id="line439" />
  <line
     class="cls-17"
     x1="46.84"
     y1="26.04"
     x2="44.55"
     y2="22.76"
     id="line441" />
  <line
     class="cls-17"
     x1="59.08"
     y1="18.98"
     x2="57.39"
     y2="15.35"
     id="line443" />
  <line
     class="cls-17"
     x1="72.35"
     y1="14.15"
     x2="71.32"
     y2="10.28"
     id="line445" />
  <line
     class="cls-16"
     x1="53.81"
     y1="23.97"
     x2="50.81"
     y2="18.78"
     id="line447" />
  <circle
     class="cls-18"
     cx="93.33"
     cy="92.43"
     r="85.75"
     id="circle449" />
</svg>
