<svg id="Capa_1" data-name="Capa 1" xmlns="http://www.w3.org/2000/svg" xmlns:xlink="http://www.w3.org/1999/xlink" viewBox="0 0 187.67 186.19"><defs><style>.cls-1,.cls-10,.cls-11,.cls-2,.cls-5,.cls-6,.cls-7,.cls-8,.cls-9{fill:none;}.cls-1{stroke:#1a1e25;stroke-width:16px;}.cls-1,.cls-10,.cls-11,.cls-2,.cls-3,.cls-5,.cls-6,.cls-7,.cls-8,.cls-9{stroke-miterlimit:10;}.cls-2{stroke-width:8px;opacity:0.3;stroke:url(#Degradado_sin_nombre_3);}.cls-3,.cls-4{font-size:6.5px;fill:#fff;font-family:PirulenRg-Regular, Pirulen;}.cls-10,.cls-11,.cls-3,.cls-5,.cls-6,.cls-7,.cls-9{stroke:#fff;}.cls-3{stroke-width:0.3px;}.cls-10,.cls-5{stroke-width:0.8px;}.cls-11,.cls-6{stroke-width:0.32px;}.cls-8{stroke-linecap:round;stroke-width:9px;stroke:url(#Degradado_sin_nombre_97);}.cls-9{stroke-width:1.7px;opacity:0.8;}.cls-10,.cls-11{opacity:0.6;}</style><linearGradient id="Degradado_sin_nombre_3" x1="159.84" y1="54.02" x2="26.81" y2="130.83" gradientUnits="userSpaceOnUse"><stop offset="0" stop-color="#4e4e4e"/><stop offset="0.47" stop-color="#464646"/><stop offset="1" stop-color="#363636"/></linearGradient><radialGradient id="Degradado_sin_nombre_97" cx="93.33" cy="92.43" r="85.29" gradientUnits="userSpaceOnUse"><stop offset="0" stop-color="#4e4e4e" stop-opacity="0"/><stop offset="0.5" stop-color="#464646" stop-opacity="0.1"/><stop offset="0.89" stop-color="#2b2b2b" stop-opacity="0.41"/><stop offset="1" stop-color="#1f1f1f" stop-opacity="0.55"/></radialGradient></defs><title>Ruleta</title><circle class="cls-1" cx="93.37" cy="92.43" r="77.24"/><text></text><text></text><text></text><circle class="cls-2" cx="93.33" cy="92.43" r="72.79"/><text class="cls-3" transform="translate(89.96 21.96)">N</text><text class="cls-4" transform="translate(124.06 28.81) rotate(30)">30</text><text class="cls-4" transform="translate(151.52 52.3) rotate(60)">60</text><text class="cls-4" transform="translate(158.07 121.22) rotate(120)">120</text><text class="cls-4" transform="translate(134.86 149.81) rotate(150)">150</text><text class="cls-3" transform="translate(163.79 89.79) rotate(90)">E</text><text class="cls-3" transform="translate(96.34 162.89) rotate(180)">S</text><text class="cls-3" transform="translate(22.86 96.78) rotate(-90)">W</text><line class="cls-5" x1="107.05" y1="14.59" x2="108.09" y2="8.68"/><line class="cls-5" x1="120.36" y1="18.15" x2="122.41" y2="12.51"/><line class="cls-5" x1="132.85" y1="23.97" x2="135.85" y2="18.78"/><line class="cls-5" x1="144.13" y1="31.88" x2="147.99" y2="27.28"/><line class="cls-5" x1="153.87" y1="41.62" x2="158.47" y2="37.76"/><line class="cls-5" x1="161.78" y1="52.91" x2="166.97" y2="49.91"/><line class="cls-5" x1="167.6" y1="65.39" x2="173.24" y2="63.34"/><line class="cls-5" x1="171.17" y1="78.7" x2="177.07" y2="77.66"/><line class="cls-5" x1="171.17" y1="106.15" x2="177.07" y2="107.19"/><line class="cls-5" x1="167.6" y1="119.46" x2="173.24" y2="121.51"/><line class="cls-5" x1="161.78" y1="131.95" x2="166.97" y2="134.95"/><line class="cls-5" x1="153.87" y1="143.23" x2="158.47" y2="147.09"/><line class="cls-5" x1="144.13" y1="152.97" x2="147.99" y2="157.57"/><line class="cls-5" x1="132.85" y1="160.88" x2="135.85" y2="166.07"/><line class="cls-5" x1="120.36" y1="166.7" x2="122.41" y2="172.34"/><line class="cls-5" x1="107.05" y1="170.26" x2="108.09" y2="176.17"/><line class="cls-5" x1="79.6" y1="170.26" x2="78.56" y2="176.17"/><line class="cls-5" x1="66.29" y1="166.7" x2="64.24" y2="172.34"/><line class="cls-5" x1="53.81" y1="160.88" x2="50.81" y2="166.07"/><line class="cls-6" x1="100.39" y1="11.69" x2="100.74" y2="7.71"/><line class="cls-6" x1="114.3" y1="14.15" x2="115.34" y2="10.28"/><line class="cls-6" x1="127.58" y1="18.98" x2="129.27" y2="15.35"/><line class="cls-6" x1="133.85" y1="22.24" x2="135.85" y2="18.78"/><line class="cls-6" x1="139.81" y1="26.04" x2="142.1" y2="22.76"/><line class="cls-6" x1="150.63" y1="35.12" x2="153.46" y2="32.29"/><line class="cls-6" x1="159.71" y1="45.94" x2="162.99" y2="43.65"/><line class="cls-6" x1="163.51" y1="51.91" x2="166.97" y2="49.91"/><line class="cls-6" x1="166.77" y1="58.18" x2="170.4" y2="56.49"/><line class="cls-6" x1="171.61" y1="71.45" x2="175.47" y2="70.42"/><line class="cls-6" x1="171.61" y1="113.4" x2="175.47" y2="114.44"/><line class="cls-6" x1="166.77" y1="126.67" x2="170.4" y2="128.36"/><line class="cls-6" x1="163.51" y1="132.95" x2="166.97" y2="134.95"/><line class="cls-6" x1="159.71" y1="138.91" x2="162.99" y2="141.2"/><line class="cls-6" x1="150.63" y1="149.73" x2="153.46" y2="152.56"/><line class="cls-6" x1="139.81" y1="158.81" x2="142.1" y2="162.09"/><line class="cls-6" x1="133.85" y1="162.61" x2="135.85" y2="166.07"/><line class="cls-6" x1="127.58" y1="165.87" x2="129.27" y2="169.5"/><line class="cls-6" x1="114.3" y1="170.7" x2="115.34" y2="174.57"/><line class="cls-6" x1="100.39" y1="173.16" x2="100.74" y2="177.14"/><line class="cls-6" x1="86.26" y1="173.16" x2="85.91" y2="177.14"/><line class="cls-6" x1="72.35" y1="170.7" x2="71.32" y2="174.57"/><line class="cls-6" x1="59.08" y1="165.87" x2="57.39" y2="169.5"/><line class="cls-6" x1="52.81" y1="162.61" x2="50.81" y2="166.07"/><line class="cls-6" x1="86.26" y1="11.69" x2="85.91" y2="7.71"/><line class="cls-7" x1="132.85" y1="23.97" x2="135.85" y2="18.78"/><line class="cls-7" x1="161.78" y1="52.91" x2="166.97" y2="49.91"/><line class="cls-7" x1="161.78" y1="131.95" x2="166.97" y2="134.95"/><line class="cls-7" x1="132.85" y1="160.88" x2="135.85" y2="166.07"/><line class="cls-7" x1="53.81" y1="160.88" x2="50.81" y2="166.07"/><text class="cls-4" transform="translate(64.4 157.09) rotate(-150)">210</text><text class="cls-4" transform="translate(36.74 135.34) rotate(-120)">240</text><text class="cls-4" transform="translate(27.9 64.83) rotate(-60)">300</text><text class="cls-4" transform="translate(50.7 35.67) rotate(-30)">330</text><circle class="cls-8" cx="93.33" cy="92.43" r="80.79"/><line class="cls-9" x1="16.33" y1="92.39" x2="8.33" y2="92.39"/><line class="cls-9" x1="93.33" y1="169.39" x2="93.33" y2="177.39"/><line class="cls-9" x1="170.33" y1="92.39" x2="178.33" y2="92.39"/><line class="cls-9" x1="93.33" y1="15.39" x2="93.33" y2="7.39"/><line class="cls-10" x1="15.49" y1="78.7" x2="9.58" y2="77.66"/><line class="cls-11" x1="12.59" y1="85.36" x2="8.61" y2="85.01"/><line class="cls-11" x1="15.05" y1="71.45" x2="11.18" y2="70.42"/><line class="cls-9" x1="16.33" y1="92.39" x2="8.33" y2="92.39"/><line class="cls-10" x1="42.52" y1="152.97" x2="38.66" y2="157.57"/><line class="cls-10" x1="32.78" y1="143.23" x2="28.18" y2="147.09"/><line class="cls-10" x1="19.05" y1="119.46" x2="13.42" y2="121.51"/><line class="cls-11" x1="46.84" y1="158.81" x2="44.55" y2="162.09"/><line class="cls-11" x1="36.02" y1="149.73" x2="33.19" y2="152.56"/><line class="cls-11" x1="26.94" y1="138.91" x2="23.67" y2="141.2"/><line class="cls-11" x1="19.88" y1="126.67" x2="16.25" y2="128.36"/><line class="cls-10" x1="15.49" y1="106.15" x2="9.58" y2="107.19"/><line class="cls-11" x1="15.05" y1="113.4" x2="11.18" y2="114.44"/><line class="cls-11" x1="12.59" y1="99.49" x2="8.61" y2="99.84"/><line class="cls-10" x1="24.88" y1="131.95" x2="19.68" y2="134.95"/><line class="cls-10" x1="19.05" y1="65.39" x2="13.42" y2="63.34"/><line class="cls-10" x1="32.78" y1="41.62" x2="28.18" y2="37.76"/><line class="cls-11" x1="19.88" y1="58.18" x2="16.25" y2="56.49"/><line class="cls-11" x1="26.94" y1="45.94" x2="23.67" y2="43.65"/><line class="cls-10" x1="24.88" y1="52.91" x2="19.68" y2="49.91"/><line class="cls-10" x1="42.52" y1="31.88" x2="38.66" y2="27.28"/><line class="cls-10" x1="66.29" y1="18.15" x2="64.24" y2="12.51"/><line class="cls-10" x1="79.6" y1="14.59" x2="78.56" y2="8.68"/><line class="cls-11" x1="36.02" y1="35.12" x2="33.19" y2="32.29"/><line class="cls-11" x1="46.84" y1="26.04" x2="44.55" y2="22.76"/><line class="cls-11" x1="59.08" y1="18.98" x2="57.39" y2="15.35"/><line class="cls-11" x1="72.35" y1="14.15" x2="71.32" y2="10.28"/><line class="cls-10" x1="53.81" y1="23.97" x2="50.81" y2="18.78"/></svg>