<svg id="Capa_1" data-name="Capa 1" xmlns="http://www.w3.org/2000/svg" xmlns:xlink="http://www.w3.org/1999/xlink" viewBox="0 0 187.67 186.19"><defs><style>.cls-1,.cls-11,.cls-12,.cls-13,.cls-14,.cls-15,.cls-16,.cls-17,.cls-18,.cls-2,.cls-3,.cls-4,.cls-5,.cls-6,.cls-8{fill:none;}.cls-2{stroke:#1a1e25;stroke-width:16px;}.cls-10,.cls-11,.cls-12,.cls-13,.cls-14,.cls-15,.cls-16,.cls-17,.cls-18,.cls-2,.cls-3,.cls-4,.cls-5,.cls-6,.cls-8,.cls-9{stroke-miterlimit:10;}.cls-3{stroke:#c22e24;}.cls-3,.cls-4,.cls-8{stroke-width:8px;}.cls-4{stroke:#81ae38;}.cls-10,.cls-11,.cls-12,.cls-15,.cls-16,.cls-17,.cls-5,.cls-6,.cls-9{stroke:#fff;}.cls-6{stroke-width:0.5px;}.cls-10,.cls-7,.cls-9{fill:#fff;}.cls-8{opacity:0.3;stroke:url(#Degradado_sin_nombre_3);}.cls-9{font-size:6.5px;font-family:PirulenRg-Regular, Pirulen;}.cls-10,.cls-9{stroke-width:0.3px;}.cls-11,.cls-16{stroke-width:0.8px;}.cls-12,.cls-17{stroke-width:0.32px;}.cls-13{stroke:#070308;}.cls-14,.cls-18{stroke-linecap:round;}.cls-14{stroke-width:9px;stroke:url(#Degradado_sin_nombre_97);}.cls-15{stroke-width:1.7px;opacity:0.8;}.cls-16,.cls-17{opacity:0.6;}.cls-18{stroke-width:1.5px;stroke:url(#Degradado_sin_nombre_102);}</style><linearGradient id="Degradado_sin_nombre_3" x1="159.84" y1="54.02" x2="26.81" y2="130.83" gradientUnits="userSpaceOnUse"><stop offset="0" stop-color="#4e4e4e"/><stop offset="0.47" stop-color="#464646"/><stop offset="1" stop-color="#363636"/></linearGradient><radialGradient id="Degradado_sin_nombre_97" cx="93.33" cy="92.43" r="85.29" gradientUnits="userSpaceOnUse"><stop offset="0" stop-color="#4e4e4e" stop-opacity="0"/><stop offset="0.5" stop-color="#464646" stop-opacity="0.1"/><stop offset="0.89" stop-color="#2b2b2b" stop-opacity="0.41"/><stop offset="1" stop-color="#1f1f1f" stop-opacity="0.55"/></radialGradient><linearGradient id="Degradado_sin_nombre_102" x1="93.33" y1="5.93" x2="93.33" y2="178.92" gradientUnits="userSpaceOnUse"><stop offset="0" stop-color="#363636"/><stop offset="1" stop-color="#1f1f1f"/></linearGradient></defs><title>Main screen_static_</title><circle class="cls-1" cx="93.33" cy="92.43" r="73.7"/><circle class="cls-2" cx="93.33" cy="92.43" r="77.24"/><path class="cls-3" d="M34.79,71A62.54,62.54,0,0,1,72.25,33.73"/><path class="cls-4" d="M114.83,33.85A62.54,62.54,0,0,1,152.06,71.3"/><line class="cls-5" x1="27.33" y1="92.39" x2="36.33" y2="92.39"/><line class="cls-5" x1="36.19" y1="59.37" x2="43.99" y2="63.87"/><line class="cls-5" x1="60.38" y1="35.21" x2="64.88" y2="43.01"/><line class="cls-5" x1="93.41" y1="26.39" x2="93.41" y2="35.39"/><line class="cls-5" x1="126.42" y1="35.25" x2="121.92" y2="43.05"/><line class="cls-5" x1="150.58" y1="59.44" x2="142.78" y2="63.94"/><line class="cls-5" x1="159.41" y1="92.47" x2="150.41" y2="92.47"/><line class="cls-5" x1="150.54" y1="125.48" x2="142.74" y2="120.98"/><line class="cls-5" x1="126.35" y1="149.64" x2="121.85" y2="141.84"/><line class="cls-5" x1="93.33" y1="158.47" x2="93.33" y2="149.47"/><line class="cls-5" x1="60.31" y1="149.6" x2="64.81" y2="141.8"/><line class="cls-5" x1="36.15" y1="125.41" x2="43.95" y2="120.91"/><text></text><line class="cls-6" x1="28.34" y1="80.92" x2="32.28" y2="81.61"/><line class="cls-6" x1="31.32" y1="69.8" x2="35.08" y2="71.17"/><line class="cls-6" x1="42.8" y1="49.94" x2="45.87" y2="52.52"/><line class="cls-6" x1="50.95" y1="41.81" x2="53.52" y2="44.87"/><line class="cls-6" x1="70.82" y1="30.35" x2="72.19" y2="34.11"/><line class="cls-6" x1="81.94" y1="27.38" x2="82.63" y2="31.32"/><line class="cls-6" x1="104.87" y1="27.4" x2="104.18" y2="31.33"/><line class="cls-6" x1="115.99" y1="30.38" x2="114.62" y2="34.14"/><line class="cls-6" x1="135.85" y1="41.86" x2="133.28" y2="44.93"/><line class="cls-6" x1="143.98" y1="50.01" x2="140.92" y2="52.58"/><line class="cls-6" x1="155.44" y1="69.88" x2="151.68" y2="71.24"/><line class="cls-6" x1="158.41" y1="81" x2="154.47" y2="81.69"/><line class="cls-6" x1="158.4" y1="103.93" x2="154.46" y2="103.24"/><line class="cls-6" x1="155.41" y1="115.05" x2="151.65" y2="113.68"/><line class="cls-6" x1="143.93" y1="134.91" x2="140.87" y2="132.33"/><line class="cls-6" x1="135.79" y1="143.04" x2="133.21" y2="139.98"/><line class="cls-6" x1="115.92" y1="154.5" x2="114.55" y2="150.74"/><line class="cls-6" x1="104.79" y1="157.47" x2="104.1" y2="153.53"/><line class="cls-6" x1="81.86" y1="157.46" x2="82.55" y2="153.52"/><line class="cls-6" x1="70.74" y1="154.47" x2="72.11" y2="150.71"/><line class="cls-6" x1="50.89" y1="142.99" x2="53.46" y2="139.93"/><line class="cls-6" x1="42.75" y1="134.84" x2="45.82" y2="132.27"/><line class="cls-6" x1="31.3" y1="114.97" x2="35.05" y2="113.61"/><line class="cls-6" x1="28.32" y1="103.85" x2="32.26" y2="103.16"/><text></text><text></text><path class="cls-7" d="M89.94,126.75l-.16.17a1.18,1.18,0,0,1-.22.17,1.33,1.33,0,0,1-.3.13,1.51,1.51,0,0,1-1-.07,1.36,1.36,0,0,1-.46-.34,1.61,1.61,0,0,1-.31-.53,2.19,2.19,0,0,1,0-1.38,1.59,1.59,0,0,1,.31-.53,1.42,1.42,0,0,1,.47-.35,1.38,1.38,0,0,1,.58-.12,1.64,1.64,0,0,1,.39,0,1.25,1.25,0,0,1,.29.11,1,1,0,0,1,.21.15l.17.17s0,.06,0,.08a.15.15,0,0,1,0,.05l0,.09-.06.09-.06.1-.05.08h0l0,0-.15-.15-.16-.13a.84.84,0,0,0-.2-.09.83.83,0,0,0-.26,0,.86.86,0,0,0-.38.08.82.82,0,0,0-.29.23,1.07,1.07,0,0,0-.18.36,1.59,1.59,0,0,0-.06.47,1.57,1.57,0,0,0,.07.5,1.08,1.08,0,0,0,.2.36.8.8,0,0,0,.29.22.86.86,0,0,0,.35.07.8.8,0,0,0,.45-.12,1.77,1.77,0,0,0,.34-.29l0,0s0,0,0,0l0,.07.06.1.07.1.05.07S90,126.7,89.94,126.75Z"/><path class="cls-7" d="M93.17,127.19h-.56a.05.05,0,0,1-.05,0l0-.08-.1-.33-.07-.18a.2.2,0,0,0-.05-.08l-.06,0H91l-.05,0a.29.29,0,0,0,0,.09l-.06.17-.08.28,0,.12a0,0,0,0,1,0,0h-.51s0,0,0,0a.47.47,0,0,1,0-.11l0-.13.09-.25.11-.32.12-.34.11-.3.08-.22.09-.23L91,125l.13-.33.12-.31.09-.24,0-.12,0-.08s0,0,.06,0h.33l.11,0h0l0,.08.07.18.13.35.17.44.17.43.07.19.13.33.15.4.15.39.12.3.05.14S93.18,127.18,93.17,127.19Zm-1.29-2-.11-.3-.07-.17-.05-.11-.09.23-.13.33-.12.32-.07.21-.05.17a.07.07,0,0,0,0,.09.27.27,0,0,0,.14,0H92a.28.28,0,0,0,.15,0,.08.08,0,0,0,0-.09l-.06-.18Z"/><path class="cls-7" d="M95.71,126.81v.13s0,.09,0,.13a.64.64,0,0,1,0,.08.1.1,0,0,1,0,.06h-2a.1.1,0,0,1,0-.07s0,0,0-.1,0-.14,0-.23v-.3q0-.17,0-.33v-.31q0-.14,0-.24t0-.24,0-.32q0-.17,0-.35t0-.32,0-.24,0-.11a.14.14,0,0,1,0-.07l.05,0h.55a.1.1,0,0,1,0,.06v.1q0,.09,0,.22t0,.29q0,.16,0,.32v.3q0,.14,0,.22,0,.25,0,.54t0,.62a.56.56,0,0,0,0,.07,0,0,0,0,0,0,0h1.14l.18,0,.14,0s.05,0,0,.07A.84.84,0,0,0,95.71,126.81Z"/><path class="cls-7" d="M98,124.9a.24.24,0,0,1,0,.07l-.16.25-.26.38-.26.35-.22.28a.29.29,0,0,0-.06.18q0,.31,0,.5t0,.22a.07.07,0,0,1,0,.05h-.58s0,0,0-.07v-.08s0-.1,0-.17v-.47a.39.39,0,0,0,0-.09.29.29,0,0,0,0-.1l-.21-.28-.27-.37-.25-.35-.15-.23a.26.26,0,0,1,0-.08.3.3,0,0,1,0-.05q0-.11,0-.25t0-.26V124a.12.12,0,0,1,0,0H96a.07.07,0,0,1,0,0s0,.06,0,.13v.48q0,.12,0,.15a.38.38,0,0,0,.07.15l.18.25.23.3.23.28.19-.23.23-.3.19-.27a.42.42,0,0,0,.08-.17s0-.07,0-.14,0-.16,0-.25v-.24q0-.11,0-.12a.13.13,0,0,1,0-.05H98a.13.13,0,0,1,0,.06s0,0,0,.1,0,.12,0,.19,0,.15,0,.24,0,.17,0,.26A.31.31,0,0,1,98,124.9Z"/><path class="cls-7" d="M100.92,125.64a1.14,1.14,0,0,1-.21.38.93.93,0,0,1-.32.25,1,1,0,0,1-.42.09h-.86l-.06,0a.12.12,0,0,0,0,.08s0,.08,0,.15,0,.15,0,.22V127q0,.1,0,.13s0,0,0,.05h-.6s0,0,0-.06,0,0,0-.1,0-.14,0-.23,0-.2,0-.31,0-.22,0-.33,0-.21,0-.31,0-.17,0-.23,0-.14,0-.24,0-.2,0-.31,0-.22,0-.33,0-.21,0-.31,0-.17,0-.24,0-.11,0-.13a.14.14,0,0,1,0-.07l.05,0h1.37a1.13,1.13,0,0,1,.46.09,1.06,1.06,0,0,1,.36.25,1.17,1.17,0,0,1,.23.38,1.32,1.32,0,0,1,.08.47A1.52,1.52,0,0,1,100.92,125.64Zm-.53-.72a.7.7,0,0,0-.12-.25.65.65,0,0,0-.22-.18.7.7,0,0,0-.33-.07h-.36l-.22,0-.1,0v.07s0,.09,0,.14,0,.12,0,.18,0,.12,0,.18,0,.11,0,.15v.07s0,.06,0,.11,0,.12,0,.18,0,.12,0,.18,0,.09,0,.11l0,0,.1,0h.62a.69.69,0,0,0,.29-.06.57.57,0,0,0,.2-.15.64.64,0,0,0,.12-.23,1,1,0,0,0,0-.28A1.06,1.06,0,0,0,100.39,124.92Z"/><path class="cls-7" d="M103.21,124.33l0,.09,0,.11,0,.09s0,0-.09,0a1.43,1.43,0,0,0-.33-.13.78.78,0,0,0-.28,0,.44.44,0,0,0-.21.08.29.29,0,0,0-.11.17.46.46,0,0,0,0,.15.28.28,0,0,0,.05.15.57.57,0,0,0,.15.15,1.38,1.38,0,0,0,.3.14,1,1,0,0,1,.45.32.82.82,0,0,1,.17.52,1,1,0,0,1-.12.49,1,1,0,0,1-.32.35,1.31,1.31,0,0,1-.47.2,1.75,1.75,0,0,1-.56,0s-.08,0-.08,0v-.12a.63.63,0,0,0,0-.14.52.52,0,0,1,0-.1.45.45,0,0,0,0-.11q0-.08,0-.07a1.57,1.57,0,0,0,.74,0,.41.41,0,0,0,.27-.29.63.63,0,0,0,0-.15.32.32,0,0,0-.06-.15.65.65,0,0,0-.16-.16,1.59,1.59,0,0,0-.3-.17,1,1,0,0,1-.36-.25.83.83,0,0,1-.17-.31.89.89,0,0,1,0-.33,1.36,1.36,0,0,1,.06-.31.63.63,0,0,1,.14-.24,1,1,0,0,1,.22-.18,1,1,0,0,1,.27-.11,1.12,1.12,0,0,1,.29,0l.22,0,.22,0,.2.07.15.08s0,0,0,0l0,0Z"/><path class="cls-7" d="M106.66,126.24a1.68,1.68,0,0,1-.33.54,1.53,1.53,0,0,1-.49.36,1.45,1.45,0,0,1-1.21,0,1.5,1.5,0,0,1-.49-.36,1.71,1.71,0,0,1-.32-.54,1.84,1.84,0,0,1-.12-.66,1.79,1.79,0,0,1,.12-.66,1.75,1.75,0,0,1,.33-.54,1.52,1.52,0,0,1,.49-.36,1.39,1.39,0,0,1,.6-.13,1.4,1.4,0,0,1,.6.13,1.52,1.52,0,0,1,.49.36,1.72,1.72,0,0,1,.33.54,1.82,1.82,0,0,1,.12.66A1.84,1.84,0,0,1,106.66,126.24Zm-.5-1.1a1.2,1.2,0,0,0-.21-.37,1,1,0,0,0-.31-.25.86.86,0,0,0-.4-.1.83.83,0,0,0-.4.1,1,1,0,0,0-.31.26,1.16,1.16,0,0,0-.2.37,1.34,1.34,0,0,0,0,.86,1.19,1.19,0,0,0,.2.37,1,1,0,0,0,.31.26.89.89,0,0,0,.8,0,1,1,0,0,0,.31-.26,1.2,1.2,0,0,0,.21-.37,1.3,1.3,0,0,0,.07-.44A1.29,1.29,0,0,0,106.16,125.14Z"/><path class="cls-7" d="M87.6,129.39h0a.4.4,0,0,1,.12-.12.3.3,0,0,1,.17,0,.33.33,0,0,1,.18.05.43.43,0,0,1,.13.14.39.39,0,0,1,.14-.14.38.38,0,0,1,.2-.05.37.37,0,0,1,.18,0,.3.3,0,0,1,.11.1.44.44,0,0,1,.06.15,1,1,0,0,1,0,.18v.66H88.7v-.62a1.08,1.08,0,0,0,0-.11.34.34,0,0,0,0-.1.2.2,0,0,0-.06-.08.18.18,0,0,0-.11,0,.2.2,0,0,0-.13,0,.25.25,0,0,0-.07.1.43.43,0,0,0,0,.13s0,.09,0,.13v.54H88v-.58s0-.07,0-.12a.46.46,0,0,0,0-.12.21.21,0,0,0-.06-.09.17.17,0,0,0-.11,0,.21.21,0,0,0-.13,0,.24.24,0,0,0-.07.1.44.44,0,0,0,0,.13s0,.09,0,.13v.54h-.21v-1.09h.21Z"/><path class="cls-7" d="M90.29,130.35h-.21v-.17h0a.5.5,0,0,1-.16.15.41.41,0,0,1-.21.06.5.5,0,0,1-.22,0,.49.49,0,0,1-.16-.13.58.58,0,0,1-.1-.19.72.72,0,0,1,0-.22.65.65,0,0,1,0-.22.57.57,0,0,1,.1-.18.51.51,0,0,1,.16-.13.47.47,0,0,1,.22,0,.41.41,0,0,1,.22.06.52.52,0,0,1,.16.16h0v-.18h.21Zm-.55-.15a.35.35,0,0,0,.15,0,.33.33,0,0,0,.11-.09.38.38,0,0,0,.07-.13.49.49,0,0,0,0-.15.48.48,0,0,0,0-.15.37.37,0,0,0-.07-.13.33.33,0,0,0-.11-.09.35.35,0,0,0-.15,0,.32.32,0,0,0-.15,0,.33.33,0,0,0-.11.09.4.4,0,0,0-.07.13.46.46,0,0,0,0,.15.47.47,0,0,0,0,.15.42.42,0,0,0,.07.13.31.31,0,0,0,.11.09A.32.32,0,0,0,89.73,130.2Z"/><path class="cls-7" d="M90.85,129.43h0a.35.35,0,0,1,.12-.15.3.3,0,0,1,.18-.06h.09l.08,0-.1.19-.06,0H91.1a.23.23,0,0,0-.14,0,.23.23,0,0,0-.08.09.42.42,0,0,0,0,.13,1.14,1.14,0,0,0,0,.13v.54h-.21v-1.09h.21Z"/><path class="cls-7" d="M91.66,128.6a.14.14,0,0,1,.1,0,.14.14,0,0,1,0,.1.14.14,0,0,1,0,.1.15.15,0,0,1-.21,0,.14.14,0,0,1,0-.1.14.14,0,0,1,0-.1A.14.14,0,0,1,91.66,128.6Zm.11,1.74h-.21v-1.09h.21Z"/><path class="cls-7" d="M92.38,129.4h0a.32.32,0,0,1,.14-.13.42.42,0,0,1,.19,0,.44.44,0,0,1,.19,0,.29.29,0,0,1,.12.1.42.42,0,0,1,.06.15.94.94,0,0,1,0,.19v.65h-.21v-.63a1.05,1.05,0,0,0,0-.13.25.25,0,0,0,0-.1.17.17,0,0,0-.07-.06l-.13,0a.26.26,0,0,0-.16,0,.23.23,0,0,0-.08.1.46.46,0,0,0,0,.14q0,.08,0,.15v.5h-.21v-1.09h.21Z"/><path class="cls-7" d="M93.59,129.84a.4.4,0,0,0,0,.14.36.36,0,0,0,.07.12.33.33,0,0,0,.1.08.3.3,0,0,0,.14,0,.3.3,0,0,0,.19-.06.59.59,0,0,0,.13-.16l.18.1a.56.56,0,0,1-.21.22.58.58,0,0,1-.3.08.55.55,0,0,1-.23,0,.49.49,0,0,1-.17-.12.54.54,0,0,1-.11-.18.67.67,0,0,1,0-.23.78.78,0,0,1,0-.23.54.54,0,0,1,.1-.19.46.46,0,0,1,.17-.12.57.57,0,0,1,.23,0,.52.52,0,0,1,.23,0,.45.45,0,0,1,.16.12.53.53,0,0,1,.09.18.8.8,0,0,1,0,.23v0Zm.62-.16a.33.33,0,0,0-.1-.2.28.28,0,0,0-.2-.07.3.3,0,0,0-.21.08.33.33,0,0,0-.1.2Z"/><path class="cls-7" d="M95.56,128.6a.14.14,0,0,1,.1,0,.14.14,0,0,1,0,.1.14.14,0,0,1,0,.1.15.15,0,0,1-.21,0,.14.14,0,0,1,0-.1.14.14,0,0,1,0-.1A.14.14,0,0,1,95.56,128.6Zm.11,1.74h-.21v-1.09h.21Z"/><path class="cls-7" d="M96.28,129.4h0a.32.32,0,0,1,.14-.13.42.42,0,0,1,.19,0,.44.44,0,0,1,.19,0,.29.29,0,0,1,.12.1.42.42,0,0,1,.06.15.94.94,0,0,1,0,.19v.65h-.21v-.63a1.06,1.06,0,0,0,0-.13.25.25,0,0,0,0-.1.17.17,0,0,0-.07-.06l-.13,0a.26.26,0,0,0-.16,0,.23.23,0,0,0-.08.1.46.46,0,0,0,0,.14q0,.08,0,.15v.5h-.21v-1.09h.21Z"/><path class="cls-7" d="M97.8,129.5a.18.18,0,0,0-.06-.07.14.14,0,0,0-.08,0,.12.12,0,0,0-.08,0,.1.1,0,0,0,0,.08.09.09,0,0,0,0,.06l.06.05.08,0,.09,0,.09,0,.08.06a.3.3,0,0,1,.06.09.28.28,0,0,1,0,.11.34.34,0,0,1,0,.14.37.37,0,0,1-.08.12.37.37,0,0,1-.12.08l-.15,0-.12,0-.11,0-.09-.08a.32.32,0,0,1-.06-.1l.18-.08a.35.35,0,0,0,.08.1.18.18,0,0,0,.12,0,.17.17,0,0,0,.12,0,.14.14,0,0,0,0-.11.11.11,0,0,0,0-.07l-.06-.05-.21-.11-.09,0-.07-.06a.22.22,0,0,1,0-.07.28.28,0,0,1,0-.1.3.3,0,0,1,0-.12.33.33,0,0,1,.07-.1l.1-.07.13,0a.31.31,0,0,1,.18.05.36.36,0,0,1,.12.14Z"/><path class="cls-7" d="M98.56,130.35h-.21v-.9h-.11v-.2h.11v-.42h.21v.42h.21v.2h-.21Z"/><path class="cls-7" d="M99.17,129.43h0a.35.35,0,0,1,.12-.15.3.3,0,0,1,.18-.06h.09l.08,0-.1.19-.06,0h-.07a.23.23,0,0,0-.14,0,.23.23,0,0,0-.08.09.42.42,0,0,0,0,.13,1.14,1.14,0,0,0,0,.13v.54H99v-1.09h.21Z"/><path class="cls-7" d="M100,129.25v.61a.71.71,0,0,0,0,.13.3.3,0,0,0,0,.11.2.2,0,0,0,.08.07.31.31,0,0,0,.25,0,.2.2,0,0,0,.08-.07.3.3,0,0,0,0-.11.72.72,0,0,0,0-.13v-.61h.21v.63a.73.73,0,0,1,0,.2.43.43,0,0,1-.08.16.37.37,0,0,1-.14.1.62.62,0,0,1-.42,0,.37.37,0,0,1-.14-.1.43.43,0,0,1-.08-.16.73.73,0,0,1,0-.2v-.63Z"/><path class="cls-7" d="M101.3,129.39h0a.4.4,0,0,1,.12-.12.3.3,0,0,1,.17,0,.33.33,0,0,1,.18.05.43.43,0,0,1,.13.14.38.38,0,0,1,.14-.14.38.38,0,0,1,.2-.05.37.37,0,0,1,.18,0,.3.3,0,0,1,.11.1.44.44,0,0,1,.06.15.94.94,0,0,1,0,.18v.66h-.21v-.62a1.08,1.08,0,0,0,0-.11.34.34,0,0,0,0-.1.2.2,0,0,0-.06-.08.18.18,0,0,0-.11,0,.2.2,0,0,0-.13,0,.25.25,0,0,0-.07.1.44.44,0,0,0,0,.13s0,.09,0,.13v.54h-.21v-.58s0-.07,0-.12a.46.46,0,0,0,0-.12.21.21,0,0,0-.06-.09.17.17,0,0,0-.11,0,.21.21,0,0,0-.13,0,.24.24,0,0,0-.07.1.44.44,0,0,0,0,.13s0,.09,0,.13v.54h-.21v-1.09h.21Z"/><path class="cls-7" d="M103.08,129.84a.4.4,0,0,0,0,.14.36.36,0,0,0,.07.12.33.33,0,0,0,.1.08.3.3,0,0,0,.14,0,.3.3,0,0,0,.19-.06.6.6,0,0,0,.13-.16l.18.1a.56.56,0,0,1-.21.22.58.58,0,0,1-.3.08.55.55,0,0,1-.23,0,.49.49,0,0,1-.17-.12.54.54,0,0,1-.11-.18.67.67,0,0,1,0-.23.77.77,0,0,1,0-.23.54.54,0,0,1,.1-.19.46.46,0,0,1,.17-.12.57.57,0,0,1,.23,0,.52.52,0,0,1,.23,0,.45.45,0,0,1,.16.12.53.53,0,0,1,.09.18.8.8,0,0,1,0,.23v0Zm.62-.16a.34.34,0,0,0-.1-.2.28.28,0,0,0-.2-.07.3.3,0,0,0-.21.08.33.33,0,0,0-.1.2Z"/><path class="cls-7" d="M104.38,129.4h0a.32.32,0,0,1,.14-.13.42.42,0,0,1,.19,0,.44.44,0,0,1,.19,0,.29.29,0,0,1,.12.1.42.42,0,0,1,.06.15.94.94,0,0,1,0,.19v.65h-.21v-.63a1.06,1.06,0,0,0,0-.13.25.25,0,0,0,0-.1.17.17,0,0,0-.07-.06l-.13,0a.26.26,0,0,0-.16,0,.23.23,0,0,0-.08.1.46.46,0,0,0,0,.14q0,.08,0,.15v.5h-.21v-1.09h.21Z"/><path class="cls-7" d="M105.69,130.35h-.21v-.9h-.11v-.2h.11v-.42h.21v.42h.21v.2h-.21Z"/><path class="cls-7" d="M106.52,129.5a.18.18,0,0,0-.06-.07.14.14,0,0,0-.08,0,.12.12,0,0,0-.08,0,.1.1,0,0,0,0,.08.09.09,0,0,0,0,.06l.06.05.08,0,.09,0,.09,0,.08.06a.3.3,0,0,1,.06.09.28.28,0,0,1,0,.11.34.34,0,0,1,0,.14.37.37,0,0,1-.08.12.37.37,0,0,1-.12.08l-.15,0-.12,0-.11,0-.09-.08a.32.32,0,0,1-.06-.1l.18-.08a.35.35,0,0,0,.08.1.18.18,0,0,0,.12,0,.17.17,0,0,0,.12,0,.14.14,0,0,0,0-.11.11.11,0,0,0,0-.07l-.06-.05-.21-.11-.09,0-.07-.06a.23.23,0,0,1,0-.07.28.28,0,0,1,0-.1.31.31,0,0,1,0-.12.33.33,0,0,1,.07-.1l.1-.07.13,0a.31.31,0,0,1,.18.05.36.36,0,0,1,.12.14Z"/><path class="cls-7" d="M80.17,130.38H80v-6.48h6.41v5.32l-.08,0a.9.9,0,0,1-.39.07h0l-.23,0a5.44,5.44,0,0,0-.85-.06,3.12,3.12,0,0,0-1.43.28,1.36,1.36,0,0,1-.62.21.42.42,0,0,1-.32-.12.4.4,0,0,1-.08-.12,3,3,0,0,0-.49.21l-.5.3-.35.21A2.07,2.07,0,0,1,80.17,130.38Zm.1-6.18v5.87a1.62,1.62,0,0,0,.62-.12l.33-.2.51-.31a3.64,3.64,0,0,1,.71-.29l.21-.06v.21a.15.15,0,0,0,0,.09.13.13,0,0,0,.09,0,1.07,1.07,0,0,0,.47-.17,3.28,3.28,0,0,1,1.58-.32,5.77,5.77,0,0,1,.9.07l.18,0h0l.16,0v-4.81Z"/><path class="cls-7" d="M83.13,124.48l-.22,4.36a7,7,0,0,1,.91-.27,5.62,5.62,0,0,1,1.67,0,8.1,8.1,0,0,1-1.71-1.74,4.9,4.9,0,0,1-.56-1.63C83.16,124.93,83.13,124.48,83.13,124.48Z"/><path class="cls-7" d="M82.77,126s-.06.85-.1,1.44-.06,1.42-.06,1.42a1.12,1.12,0,0,0-.59.1,4.63,4.63,0,0,0-.54.3s.25-.83.44-1.32.42-.95.51-1.17S82.77,126,82.77,126Z"/><text></text><path class="cls-7" d="M93.35,59.39A45.37,45.37,0,0,0,82.18,72.15a47.6,47.6,0,0,0-5.94,15.8A53.44,53.44,0,0,0,76,104.81a71.55,71.55,0,0,0,4.36,16.35l-.66-.45,13.64,0,13.64,0-.66.45a71.55,71.55,0,0,0,4.36-16.35,53.49,53.49,0,0,0-.22-16.86,47.57,47.57,0,0,0-5.94-15.8A45.37,45.37,0,0,0,93.38,59.39a44,44,0,0,1,11.7,12.44,46.68,46.68,0,0,1,6.41,15.94A52,52,0,0,1,112,105a72.9,72.9,0,0,1-4.33,16.69l-.17.45H107l-13.64,0-13.64,0h-.48l-.17-.45A72.9,72.9,0,0,1,74.74,105a52.05,52.05,0,0,1,.51-17.22,46.65,46.65,0,0,1,6.41-15.93A44,44,0,0,1,93.35,59.39Z"/><circle class="cls-8" cx="93.33" cy="92.43" r="72.79"/><path class="cls-7" d="M114.92,46l.29-.5,2.25,1.3a.7.7,0,0,0,.35.11.34.34,0,0,0,.28-.21l.24-.42a.27.27,0,0,0,0-.29.76.76,0,0,0-.27-.24L116,44.51l.29-.5,2.1,1.21a.63.63,0,0,0,.35.12.27.27,0,0,0,.2-.15l.17-.29a.27.27,0,0,0,0-.25.65.65,0,0,0-.27-.24l-2.24-1.29.29-.5,2.24,1.29a2.21,2.21,0,0,1,.45.32,1,1,0,0,1,.24.33.64.64,0,0,1,0,.33.9.9,0,0,1-.12.33l-.15.25a.71.71,0,0,1-.32.31.53.53,0,0,1-.4,0,.79.79,0,0,1,.21.36.59.59,0,0,1-.09.44l-.32.55a.87.87,0,0,1-.21.25.64.64,0,0,1-.3.13,1.06,1.06,0,0,1-.42,0,2.15,2.15,0,0,1-.55-.24Z"/><path class="cls-7" d="M119.85,48.82a2,2,0,0,1-.45-.34,1,1,0,0,1-.23-.35.71.71,0,0,1,0-.36,1,1,0,0,1,.13-.36l1-1.73a1.06,1.06,0,0,1,.25-.3.72.72,0,0,1,.33-.15,1,1,0,0,1,.42,0,2,2,0,0,1,.52.22l1.58.91a2,2,0,0,1,.45.34,1,1,0,0,1,.23.35.72.72,0,0,1,0,.36,1,1,0,0,1-.13.36l-1,1.73a1,1,0,0,1-.25.3.73.73,0,0,1-.33.15,1,1,0,0,1-.42,0,2,2,0,0,1-.52-.22Zm3.47-1.4c.12-.21,0-.39-.24-.55L121.5,46q-.42-.24-.6.07l-1,1.74c-.12.21,0,.39.24.55l1.58.91q.42.24.6-.07Z"/><path class="cls-7" d="M135.37,63.65a2,2,0,0,1-.22-.52,1.06,1.06,0,0,1,0-.42.73.73,0,0,1,.15-.33,1.06,1.06,0,0,1,.29-.25l1.73-1a1,1,0,0,1,.36-.13.72.72,0,0,1,.36,0,1,1,0,0,1,.35.23,2,2,0,0,1,.34.45l1.5,2.59-.5.29L138.23,62c-.16-.28-.35-.36-.55-.24l-.39.22,1.22,2.11a2,2,0,0,1,.22.52,1.06,1.06,0,0,1,0,.42.72.72,0,0,1-.15.33,1,1,0,0,1-.29.25l-.54.31a1,1,0,0,1-.36.13.73.73,0,0,1-.36,0,1,1,0,0,1-.36-.23,2,2,0,0,1-.34-.45ZM138,65q.31-.18.07-.6l-1.22-2.12-.86.5q-.31.18-.07.6l1,1.7q.24.42.55.24Z"/><path class="cls-7" d="M137.89,68a2,2,0,0,1-.22-.52,1,1,0,0,1,0-.42.72.72,0,0,1,.15-.33,1,1,0,0,1,.3-.25l1.73-1a1,1,0,0,1,.36-.13.73.73,0,0,1,.36,0,1,1,0,0,1,.36.23,2,2,0,0,1,.34.45l.91,1.58a2,2,0,0,1,.22.52,1,1,0,0,1,0,.42.73.73,0,0,1-.15.33,1.06,1.06,0,0,1-.3.25l-1.73,1a1,1,0,0,1-.36.13.73.73,0,0,1-.36,0,1,1,0,0,1-.36-.23,2,2,0,0,1-.34-.45Zm3.7.52c.21-.12.23-.32.07-.6l-.91-1.58q-.24-.42-.55-.24l-1.74,1q-.31.18-.07.6l.91,1.58q.24.42.55.24Z"/><path class="cls-7" d="M143.91,88h.57v3q0,.48.36.48h.54V89a2,2,0,0,1,.07-.56,1,1,0,0,1,.19-.38.72.72,0,0,1,.29-.21,1,1,0,0,1,.38-.07h.53a1,1,0,0,1,.38.07.72.72,0,0,1,.29.21,1,1,0,0,1,.19.38,2,2,0,0,1,.07.56v2a2,2,0,0,1-.07.56,1,1,0,0,1-.19.38.72.72,0,0,1-.29.21,1,1,0,0,1-.38.07h-2a1,1,0,0,1-.38-.07.73.73,0,0,1-.29-.21,1,1,0,0,1-.19-.38,2,2,0,0,1-.07-.56Zm2.94,3.45q.36,0,.36-.48V89q0-.48-.36-.48h-.54q-.36,0-.36.48v2.44Z"/><path class="cls-7" d="M143.91,94.08a2,2,0,0,1,.07-.56,1,1,0,0,1,.19-.38.73.73,0,0,1,.29-.21,1,1,0,0,1,.38-.07h2a1,1,0,0,1,.38.07.72.72,0,0,1,.29.21,1,1,0,0,1,.19.38,2,2,0,0,1,.07.56V95.9a2,2,0,0,1-.07.56,1,1,0,0,1-.19.38.72.72,0,0,1-.29.21,1,1,0,0,1-.38.07h-2a1,1,0,0,1-.38-.07.73.73,0,0,1-.29-.21,1,1,0,0,1-.19-.38,2,2,0,0,1-.07-.56Zm2.94,2.3q.36,0,.36-.48V94.08q0-.48-.36-.48h-2q-.36,0-.36.48V95.9q0,.48.36.48Z"/><path class="cls-7" d="M139.71,113.23l2.88,1.66-.13-.39.38-.67.36,1.08-.51.88-3.35-1.94Z"/><path class="cls-7" d="M139,114.43l1.22.71a1.05,1.05,0,0,1,.29.25.72.72,0,0,1,.15.33,1,1,0,0,1,0,.42,2,2,0,0,1-.22.52l-.79,1.36q-.24.42.07.6l.21.12c.21.12.39,0,.55-.24l1.29-2.23.5.29L141,118.78a2,2,0,0,1-.34.45,1,1,0,0,1-.36.23.73.73,0,0,1-.36,0,1,1,0,0,1-.36-.13l-.2-.11a1.05,1.05,0,0,1-.29-.25.72.72,0,0,1-.15-.33,1,1,0,0,1,0-.42,2,2,0,0,1,.22-.52l.79-1.36q.24-.42-.07-.6l-.73-.42-1.64,2.83-.5-.29Z"/><path class="cls-7" d="M136.09,119.51a2,2,0,0,1,.34-.45,1,1,0,0,1,.36-.23.73.73,0,0,1,.36,0,1,1,0,0,1,.36.13l1.73,1a1.05,1.05,0,0,1,.3.25.72.72,0,0,1,.15.33,1,1,0,0,1,0,.42,2,2,0,0,1-.22.52l-.91,1.58a2,2,0,0,1-.34.45,1,1,0,0,1-.36.23.73.73,0,0,1-.36,0,1,1,0,0,1-.36-.13l-1.73-1a1,1,0,0,1-.3-.25.73.73,0,0,1-.15-.33,1,1,0,0,1,0-.42,2,2,0,0,1,.22-.52Zm1.4,3.47c.21.12.39,0,.55-.24l.91-1.58c.16-.28.14-.48-.07-.6l-1.74-1q-.31-.18-.55.24l-.91,1.58q-.24.42.07.6Z"/><path class="cls-7" d="M123.1,133.59l1.66,2.88.08-.4.67-.38-.23,1.12-.88.51L122.47,134Z"/><path class="cls-7" d="M121.86,134.3l.29.5-2.4,1.38c-.28.16-.36.35-.24.55l.35.6q.18.31.6.07l2.4-1.38.95,1.64-3.34,1.93-.29-.5,2.71-1.56-.37-.65-1.76,1a2,2,0,0,1-.52.22,1,1,0,0,1-.42,0,.72.72,0,0,1-.33-.15,1,1,0,0,1-.25-.29l-.34-.59a1,1,0,0,1-.13-.36.72.72,0,0,1,0-.36A1,1,0,0,1,119,136a2,2,0,0,1,.45-.34Z"/><path class="cls-7" d="M116.84,137.21a2,2,0,0,1,.52-.22,1,1,0,0,1,.42,0,.73.73,0,0,1,.33.15,1,1,0,0,1,.25.3l1,1.73a1.05,1.05,0,0,1,.13.36.73.73,0,0,1,0,.36,1,1,0,0,1-.23.35,2,2,0,0,1-.45.34l-1.58.91a2,2,0,0,1-.52.22,1,1,0,0,1-.42,0,.73.73,0,0,1-.33-.15,1,1,0,0,1-.25-.3l-1-1.73a1,1,0,0,1-.13-.36.73.73,0,0,1,0-.36,1,1,0,0,1,.23-.36,2,2,0,0,1,.45-.34Zm-.53,3.7q.18.31.6.07l1.58-.91q.42-.24.24-.55l-1-1.74q-.18-.31-.6-.07l-1.58.91c-.28.16-.36.35-.24.55Z"/><path class="cls-7" d="M98.33,143v3.33l.27-.31h.77l-.75.85h-1V143Z"/><path class="cls-7" d="M95.68,143a2.12,2.12,0,0,1,.59.07,1,1,0,0,1,.38.18.64.64,0,0,1,.2.27.88.88,0,0,1,.06.32v.63a.58.58,0,0,1-.14.43.79.79,0,0,1-.36.21.53.53,0,0,1,.33.22.71.71,0,0,1,.12.43V146a.9.9,0,0,1-.07.35.65.65,0,0,1-.21.26,1,1,0,0,1-.37.17,2.27,2.27,0,0,1-.55.06H93.74a2.28,2.28,0,0,1-.55-.06,1,1,0,0,1-.37-.17.65.65,0,0,1-.21-.26.9.9,0,0,1-.07-.35v-.29a.71.71,0,0,1,.12-.43.53.53,0,0,1,.33-.22.79.79,0,0,1-.36-.21.58.58,0,0,1-.14-.43v-.63a.88.88,0,0,1,.06-.32.64.64,0,0,1,.2-.27,1,1,0,0,1,.38-.18,2.13,2.13,0,0,1,.59-.07Zm-2.45,1.46a.27.27,0,0,0,.14.26.76.76,0,0,0,.36.07h2a.76.76,0,0,0,.36-.07.27.27,0,0,0,.14-.26V144a.34.34,0,0,0-.14-.32.69.69,0,0,0-.36-.08h-2a.69.69,0,0,0-.36.08.34.34,0,0,0-.14.32Zm0,1.54a.27.27,0,0,0,.1.23.64.64,0,0,0,.36.07h1.93a.64.64,0,0,0,.36-.07.27.27,0,0,0,.1-.23v-.33a.27.27,0,0,0-.1-.23.65.65,0,0,0-.36-.07H93.74a.65.65,0,0,0-.36.07.27.27,0,0,0-.1.23Z"/><path class="cls-7" d="M90.62,143a2,2,0,0,1,.56.07,1,1,0,0,1,.38.19.73.73,0,0,1,.21.29,1,1,0,0,1,.07.38v2a1,1,0,0,1-.07.38.72.72,0,0,1-.21.29,1,1,0,0,1-.38.19,2,2,0,0,1-.56.07H88.8a2,2,0,0,1-.56-.07,1,1,0,0,1-.38-.19.72.72,0,0,1-.21-.29,1,1,0,0,1-.07-.38v-2a1,1,0,0,1,.07-.38.73.73,0,0,1,.21-.29,1,1,0,0,1,.38-.19,2,2,0,0,1,.56-.07ZM88.32,146q0,.36.48.36h1.82q.48,0,.48-.36v-2q0-.36-.48-.36H88.8q-.48,0-.48.36Z"/><path class="cls-7" d="M72.51,138.81l-1.66,2.88.39-.13.67.38-1.08.36-.88-.51,1.94-3.35Z"/><path class="cls-7" d="M71.28,138.09l-.29.5-2.4-1.38q-.42-.24-.6.07l-.35.6c-.12.21,0,.39.24.55l2.4,1.38-.95,1.64L66,139.52l.29-.5L69,140.58l.37-.65-1.76-1a2,2,0,0,1-.45-.34,1,1,0,0,1-.23-.35.72.72,0,0,1,0-.36,1,1,0,0,1,.13-.36l.34-.59a1,1,0,0,1,.25-.3.72.72,0,0,1,.33-.15,1,1,0,0,1,.42,0,2,2,0,0,1,.52.22Z"/><path class="cls-7" d="M66.25,135.19a2,2,0,0,1,.45.34,1,1,0,0,1,.23.35.72.72,0,0,1,0,.36,1,1,0,0,1-.13.36l-1,1.73a1,1,0,0,1-.25.3.72.72,0,0,1-.33.15,1,1,0,0,1-.42,0,2,2,0,0,1-.52-.22l-1.58-.91a2,2,0,0,1-.45-.34,1,1,0,0,1-.23-.36.72.72,0,0,1,0-.36,1,1,0,0,1,.13-.36l1-1.73a1,1,0,0,1,.25-.29.74.74,0,0,1,.33-.15,1,1,0,0,1,.42,0,2,2,0,0,1,.52.22Zm-3.47,1.4c-.12.21,0,.39.24.55l1.58.91c.28.16.48.14.6-.07l1-1.74q.18-.31-.24-.55l-1.58-.91c-.28-.16-.48-.14-.6.07Z"/><path class="cls-7" d="M52.16,122.21l-2.88,1.66.4.08.38.67L49,124.39l-.51-.88,3.35-1.94Z"/><path class="cls-7" d="M51.47,121l-1.22.71a1,1,0,0,1-.36.13.73.73,0,0,1-.36,0,1,1,0,0,1-.35-.23,1.93,1.93,0,0,1-.34-.45L48,119.76q-.24-.42-.55-.24l-.21.12q-.31.18-.07.6l1.29,2.23-.5.29-1.29-2.23a2,2,0,0,1-.22-.52,1,1,0,0,1,0-.42.73.73,0,0,1,.15-.33,1.07,1.07,0,0,1,.3-.25l.2-.11a1,1,0,0,1,.36-.13.74.74,0,0,1,.36,0,1,1,0,0,1,.35.23,2,2,0,0,1,.34.45l.79,1.36q.24.42.55.24l.73-.42L49,117.82l.5-.29Z"/><path class="cls-7" d="M48.54,115.93a2,2,0,0,1,.22.52,1,1,0,0,1,0,.42.73.73,0,0,1-.15.33,1,1,0,0,1-.3.25l-1.73,1a1.06,1.06,0,0,1-.36.13.71.71,0,0,1-.36,0,1,1,0,0,1-.35-.23,2,2,0,0,1-.34-.45l-.91-1.58a2,2,0,0,1-.22-.52,1,1,0,0,1,0-.42.73.73,0,0,1,.15-.33,1,1,0,0,1,.3-.25l1.73-1a1.05,1.05,0,0,1,.36-.13.73.73,0,0,1,.36,0,1,1,0,0,1,.35.23,2,2,0,0,1,.34.45Zm-3.7-.52q-.31.18-.07.6l.91,1.58q.24.42.55.24l1.74-1q.31-.18.07-.6l-.91-1.58q-.24-.42-.55-.24Z"/><path class="cls-7" d="M42.74,96.83h-.57v-3q0-.48-.36-.48h-.54v2.44a2,2,0,0,1-.07.56,1,1,0,0,1-.19.38.73.73,0,0,1-.29.21,1,1,0,0,1-.38.07H39.8a1,1,0,0,1-.38-.07.73.73,0,0,1-.29-.21,1,1,0,0,1-.19-.38,2,2,0,0,1-.07-.56v-2a2,2,0,0,1,.07-.56,1,1,0,0,1,.19-.38.72.72,0,0,1,.29-.21,1,1,0,0,1,.38-.07h2a1,1,0,0,1,.38.07.72.72,0,0,1,.29.21,1,1,0,0,1,.19.38,2,2,0,0,1,.07.56ZM39.8,93.38q-.36,0-.36.48v2q0,.48.36.48h.54q.36,0,.36-.48V93.38Z"/><path class="cls-7" d="M42.74,90.77a2,2,0,0,1-.07.56,1,1,0,0,1-.19.38.73.73,0,0,1-.29.21,1,1,0,0,1-.38.07h-2a1,1,0,0,1-.38-.07.73.73,0,0,1-.29-.21,1,1,0,0,1-.19-.38,2,2,0,0,1-.07-.56V88.95a2,2,0,0,1,.07-.56,1,1,0,0,1,.19-.38.73.73,0,0,1,.29-.21,1,1,0,0,1,.38-.07h2a1,1,0,0,1,.38.07.73.73,0,0,1,.29.21,1,1,0,0,1,.19.38,2,2,0,0,1,.07.56Zm-2.94-2.3q-.36,0-.36.48v1.82q0,.48.36.48h2q.36,0,.36-.48V88.95q0-.48-.36-.48Z"/><path class="cls-7" d="M47.86,70a2,2,0,0,1-.34.45,1,1,0,0,1-.35.23.72.72,0,0,1-.36,0,1,1,0,0,1-.36-.13l-1.73-1a1.05,1.05,0,0,1-.29-.25.72.72,0,0,1-.15-.33,1,1,0,0,1,0-.42,2,2,0,0,1,.22-.52L46,65.5l.5.29L45,68.38q-.24.42.07.6l.39.22,1.22-2.11a2,2,0,0,1,.34-.45,1,1,0,0,1,.36-.23.72.72,0,0,1,.36,0,1,1,0,0,1,.36.13l.54.31a1.06,1.06,0,0,1,.3.25.72.72,0,0,1,.15.33,1,1,0,0,1,0,.42,2,2,0,0,1-.22.52Zm-.14-2.9q-.31-.18-.55.24l-1.22,2.11.86.5q.31.18.55-.24l1-1.7q.24-.42-.07-.6Z"/><path class="cls-7" d="M50.38,65.67a2,2,0,0,1-.34.45,1,1,0,0,1-.35.23.73.73,0,0,1-.36,0,1.06,1.06,0,0,1-.36-.13l-1.73-1a1,1,0,0,1-.3-.25.72.72,0,0,1-.15-.33,1,1,0,0,1,0-.42,2,2,0,0,1,.22-.52l.91-1.58a2,2,0,0,1,.34-.45,1,1,0,0,1,.36-.23.72.72,0,0,1,.36,0,1,1,0,0,1,.36.13l1.73,1a1,1,0,0,1,.3.25.72.72,0,0,1,.15.33,1,1,0,0,1,0,.42,2,2,0,0,1-.22.52ZM49,62.2q-.31-.18-.55.24L47.52,64q-.24.42.07.6l1.74,1q.31.18.55-.24l.91-1.58c.16-.28.14-.48-.07-.6Z"/><path class="cls-7" d="M64.31,50.82l-.29-.5L66.27,49a.69.69,0,0,0,.27-.25.34.34,0,0,0,0-.35L66.26,48a.27.27,0,0,0-.25-.15.76.76,0,0,0-.35.12l-2.11,1.22-.29-.5,2.1-1.21a.64.64,0,0,0,.27-.24.26.26,0,0,0,0-.25l-.17-.29a.26.26,0,0,0-.2-.15.65.65,0,0,0-.34.12L62.66,48l-.29-.5,2.24-1.29a2.26,2.26,0,0,1,.5-.22,1,1,0,0,1,.4,0,.64.64,0,0,1,.31.13.89.89,0,0,1,.23.27l.15.25a.7.7,0,0,1,.11.43.53.53,0,0,1-.18.35.79.79,0,0,1,.42,0,.58.58,0,0,1,.34.3l.32.55a.9.9,0,0,1,.11.3.65.65,0,0,1,0,.33,1.06,1.06,0,0,1-.23.35,2.16,2.16,0,0,1-.48.36Z"/><path class="cls-7" d="M69.24,48a2,2,0,0,1-.52.22,1,1,0,0,1-.42,0,.73.73,0,0,1-.33-.15,1.06,1.06,0,0,1-.25-.3l-1-1.73a1,1,0,0,1-.13-.36.71.71,0,0,1,0-.36,1,1,0,0,1,.23-.35,2,2,0,0,1,.45-.34l1.58-.91a2,2,0,0,1,.52-.22,1,1,0,0,1,.42,0,.72.72,0,0,1,.33.15,1.06,1.06,0,0,1,.25.3l1,1.73a1,1,0,0,1,.13.36.73.73,0,0,1,0,.36,1,1,0,0,1-.23.35,2,2,0,0,1-.45.34Zm.52-3.7q-.18-.31-.6-.07l-1.58.91q-.42.24-.24.55l1,1.74q.18.31.6.07l1.58-.91c.28-.16.36-.35.24-.55Z"/><text class="cls-9" transform="translate(89.96 21.96)">N</text><path class="cls-7" d="M124.4,29l.34-.59L127.4,30a.81.81,0,0,0,.41.13.4.4,0,0,0,.33-.25l.29-.5a.31.31,0,0,0,0-.34.91.91,0,0,0-.32-.29l-2.49-1.44.34-.59,2.48,1.43a.76.76,0,0,0,.41.14.31.31,0,0,0,.24-.18l.2-.34a.31.31,0,0,0,0-.29.76.76,0,0,0-.32-.28l-2.65-1.53.34-.59,2.65,1.53a2.69,2.69,0,0,1,.53.38,1.17,1.17,0,0,1,.28.39.75.75,0,0,1,.05.39,1,1,0,0,1-.14.4l-.17.3a.85.85,0,0,1-.38.36.62.62,0,0,1-.47,0,.94.94,0,0,1,.25.43.69.69,0,0,1-.11.52l-.37.65a1,1,0,0,1-.25.29.76.76,0,0,1-.36.16,1.26,1.26,0,0,1-.49,0,2.6,2.6,0,0,1-.65-.28Z"/><path class="cls-7" d="M130.24,32.39a2.35,2.35,0,0,1-.53-.4,1.23,1.23,0,0,1-.27-.42.86.86,0,0,1,0-.43,1.23,1.23,0,0,1,.16-.43l1.18-2a1.23,1.23,0,0,1,.29-.35.86.86,0,0,1,.39-.18,1.21,1.21,0,0,1,.5,0,2.34,2.34,0,0,1,.62.26l1.86,1.08a2.37,2.37,0,0,1,.53.4,1.21,1.21,0,0,1,.27.42.85.85,0,0,1,0,.43,1.22,1.22,0,0,1-.16.43l-1.18,2a1.24,1.24,0,0,1-.29.35.85.85,0,0,1-.39.18,1.2,1.2,0,0,1-.5,0,2.35,2.35,0,0,1-.62-.26Zm4.1-1.65c.14-.24,0-.46-.28-.65L132.19,29c-.33-.19-.57-.17-.71.08l-1.19,2.06c-.14.24,0,.46.28.65l1.86,1.08q.5.29.71-.08Z"/><path class="cls-7" d="M152.4,53.92a2.38,2.38,0,0,1-.26-.61,1.23,1.23,0,0,1,0-.5.86.86,0,0,1,.18-.39,1.23,1.23,0,0,1,.35-.29l2-1.18a1.25,1.25,0,0,1,.43-.16.88.88,0,0,1,.43,0,1.21,1.21,0,0,1,.42.27,2.34,2.34,0,0,1,.4.53l1.77,3.06-.59.34L155.78,52q-.29-.5-.65-.29l-.46.26,1.44,2.5a2.35,2.35,0,0,1,.26.62,1.21,1.21,0,0,1,0,.5.84.84,0,0,1-.18.39,1.22,1.22,0,0,1-.35.29l-.64.37a1.23,1.23,0,0,1-.43.16.85.85,0,0,1-.43,0,1.22,1.22,0,0,1-.42-.27,2.35,2.35,0,0,1-.4-.53Zm3,1.57c.24-.14.27-.38.08-.71l-1.44-2.5-1,.59q-.37.21-.08.71l1.16,2c.19.33.41.42.65.28Z"/><path class="cls-7" d="M155.37,59.07a2.34,2.34,0,0,1-.26-.61,1.2,1.2,0,0,1,0-.5.85.85,0,0,1,.18-.39,1.24,1.24,0,0,1,.35-.29l2-1.18a1.25,1.25,0,0,1,.43-.16.88.88,0,0,1,.43,0,1.22,1.22,0,0,1,.42.27,2.4,2.4,0,0,1,.4.53l1.08,1.86a2.35,2.35,0,0,1,.26.62,1.21,1.21,0,0,1,0,.5.85.85,0,0,1-.18.39,1.22,1.22,0,0,1-.35.29l-2,1.18a1.21,1.21,0,0,1-.43.16.84.84,0,0,1-.43,0,1.22,1.22,0,0,1-.42-.27,2.38,2.38,0,0,1-.4-.53Zm4.37.62c.24-.14.27-.38.08-.71l-1.08-1.86q-.29-.5-.65-.29L156,58q-.37.21-.08.71L157,60.59q.29.5.65.28Z"/><path class="cls-7" d="M157.4,122.35l3.41,2-.16-.46.46-.79.43,1.27-.6,1-4-2.29Z"/><path class="cls-7" d="M156.58,123.76l1.45.84a1.26,1.26,0,0,1,.35.29.86.86,0,0,1,.17.39,1.21,1.21,0,0,1,0,.5,2.37,2.37,0,0,1-.26.61l-.93,1.61q-.29.5.08.71l.24.14q.37.21.65-.28l1.52-2.64.59.34-1.53,2.64a2.32,2.32,0,0,1-.4.53,1.2,1.2,0,0,1-.42.27.84.84,0,0,1-.43,0,1.21,1.21,0,0,1-.43-.16l-.23-.13a1.25,1.25,0,0,1-.35-.29.85.85,0,0,1-.18-.39,1.21,1.21,0,0,1,0-.5,2.37,2.37,0,0,1,.26-.61l.93-1.61q.29-.5-.08-.71l-.87-.5-1.93,3.35-.58-.34Z"/><path class="cls-7" d="M153.12,129.76a2.35,2.35,0,0,1,.4-.53,1.22,1.22,0,0,1,.42-.27.87.87,0,0,1,.43,0,1.24,1.24,0,0,1,.43.16l2,1.18a1.24,1.24,0,0,1,.35.29.87.87,0,0,1,.18.39,1.21,1.21,0,0,1,0,.5,2.35,2.35,0,0,1-.26.62L156,133.92a2.35,2.35,0,0,1-.4.53,1.21,1.21,0,0,1-.42.27.86.86,0,0,1-.43,0,1.2,1.2,0,0,1-.43-.16l-2-1.18a1.23,1.23,0,0,1-.35-.29.85.85,0,0,1-.18-.39,1.23,1.23,0,0,1,0-.5,2.34,2.34,0,0,1,.26-.61Zm1.65,4.1q.37.21.65-.28l1.08-1.86q.29-.5-.08-.71l-2.06-1.19q-.37-.21-.65.28L152.63,132q-.29.5.08.71Z"/><path class="cls-7" d="M133.73,150.41l2,3.41.09-.47.79-.46-.27,1.32-1,.6-2.29-4Z"/><path class="cls-7" d="M132.27,151.25l.34.59-2.83,1.63q-.5.29-.28.65l.41.71q.21.37.71.08l2.83-1.63,1.12,1.94-3.95,2.28-.34-.58,3.2-1.85-.44-.77-2.08,1.2a2.3,2.3,0,0,1-.62.26,1.21,1.21,0,0,1-.5,0,.85.85,0,0,1-.39-.18,1.25,1.25,0,0,1-.29-.35l-.4-.7a1.25,1.25,0,0,1-.16-.43.85.85,0,0,1,0-.43,1.2,1.2,0,0,1,.27-.42,2.32,2.32,0,0,1,.53-.4Z"/><path class="cls-7" d="M126.33,154.68a2.34,2.34,0,0,1,.62-.26,1.21,1.21,0,0,1,.5,0,.86.86,0,0,1,.39.18,1.22,1.22,0,0,1,.29.35l1.18,2a1.22,1.22,0,0,1,.16.43.87.87,0,0,1,0,.43,1.22,1.22,0,0,1-.27.42,2.32,2.32,0,0,1-.53.4l-1.86,1.08a2.31,2.31,0,0,1-.62.26,1.21,1.21,0,0,1-.5,0,.85.85,0,0,1-.39-.18,1.25,1.25,0,0,1-.29-.35l-1.18-2a1.22,1.22,0,0,1-.16-.43.86.86,0,0,1,0-.43,1.22,1.22,0,0,1,.27-.42,2.38,2.38,0,0,1,.53-.4Zm-.62,4.37q.21.37.71.08l1.86-1.08q.5-.29.28-.65l-1.19-2.06q-.21-.37-.71-.08l-1.86,1.08q-.5.29-.28.65Z"/><path class="cls-10" d="M163.79,90.21h4.58v4.71h-.68V91.07h-1.14v3.65h-.68V91.07h-1.4v3.84h-.68Z"/><path class="cls-10" d="M95.86,162.89v.68h-4q-.57,0-.57.42v.58q0,.42.57.42h2.69a2.37,2.37,0,0,1,.66.08,1.2,1.2,0,0,1,.45.23.85.85,0,0,1,.25.35,1.23,1.23,0,0,1,.08.45v.27a1.23,1.23,0,0,1-.08.45.86.86,0,0,1-.25.35,1.2,1.2,0,0,1-.45.23,2.33,2.33,0,0,1-.66.08H90.69v-.68h3.87q.57,0,.57-.42v-.28q0-.42-.57-.42H91.88a2.37,2.37,0,0,1-.66-.08,1.21,1.21,0,0,1-.45-.23.85.85,0,0,1-.25-.35,1.23,1.23,0,0,1-.08-.45V164a1.23,1.23,0,0,1,.08-.45.85.85,0,0,1,.25-.35,1.21,1.21,0,0,1,.45-.23,2.37,2.37,0,0,1,.66-.08Z"/><path class="cls-10" d="M22.86,90.84l-3.51,1.59L22.86,94v.63l-4.58,2.11v-.83l3.51-1.59-3.51-1.61V92.1l3.51-1.59-3.51-1.61v-.84l4.58,2.11Z"/><line class="cls-11" x1="107.05" y1="14.59" x2="108.09" y2="8.68"/><line class="cls-11" x1="120.36" y1="18.15" x2="122.41" y2="12.51"/><line class="cls-11" x1="132.85" y1="23.97" x2="135.85" y2="18.78"/><line class="cls-11" x1="144.13" y1="31.88" x2="147.99" y2="27.28"/><line class="cls-11" x1="153.87" y1="41.62" x2="158.47" y2="37.76"/><line class="cls-11" x1="161.78" y1="52.91" x2="166.97" y2="49.91"/><line class="cls-11" x1="167.6" y1="65.39" x2="173.24" y2="63.34"/><line class="cls-11" x1="171.17" y1="78.7" x2="177.07" y2="77.66"/><line class="cls-11" x1="171.17" y1="106.15" x2="177.07" y2="107.19"/><line class="cls-11" x1="167.6" y1="119.46" x2="173.24" y2="121.51"/><line class="cls-11" x1="161.78" y1="131.95" x2="166.97" y2="134.95"/><line class="cls-11" x1="153.87" y1="143.23" x2="158.47" y2="147.09"/><line class="cls-11" x1="144.13" y1="152.97" x2="147.99" y2="157.57"/><line class="cls-11" x1="132.85" y1="160.88" x2="135.85" y2="166.07"/><line class="cls-11" x1="120.36" y1="166.7" x2="122.41" y2="172.34"/><line class="cls-11" x1="107.05" y1="170.26" x2="108.09" y2="176.17"/><line class="cls-11" x1="79.6" y1="170.26" x2="78.56" y2="176.17"/><line class="cls-11" x1="66.29" y1="166.7" x2="64.24" y2="172.34"/><line class="cls-11" x1="53.81" y1="160.88" x2="50.81" y2="166.07"/><line class="cls-12" x1="100.39" y1="11.69" x2="100.74" y2="7.71"/><line class="cls-12" x1="114.3" y1="14.15" x2="115.34" y2="10.28"/><line class="cls-12" x1="127.58" y1="18.98" x2="129.27" y2="15.35"/><line class="cls-12" x1="133.85" y1="22.24" x2="135.85" y2="18.78"/><line class="cls-12" x1="139.81" y1="26.04" x2="142.1" y2="22.76"/><line class="cls-12" x1="150.63" y1="35.12" x2="153.46" y2="32.29"/><line class="cls-12" x1="159.71" y1="45.94" x2="162.99" y2="43.65"/><line class="cls-12" x1="163.51" y1="51.91" x2="166.97" y2="49.91"/><line class="cls-12" x1="166.77" y1="58.18" x2="170.4" y2="56.49"/><line class="cls-12" x1="171.61" y1="71.45" x2="175.47" y2="70.42"/><line class="cls-12" x1="171.61" y1="113.4" x2="175.47" y2="114.44"/><line class="cls-12" x1="166.77" y1="126.67" x2="170.4" y2="128.36"/><line class="cls-12" x1="163.51" y1="132.95" x2="166.97" y2="134.95"/><line class="cls-12" x1="159.71" y1="138.91" x2="162.99" y2="141.2"/><line class="cls-12" x1="150.63" y1="149.73" x2="153.46" y2="152.56"/><line class="cls-12" x1="139.81" y1="158.81" x2="142.1" y2="162.09"/><line class="cls-12" x1="133.85" y1="162.61" x2="135.85" y2="166.07"/><line class="cls-12" x1="127.58" y1="165.87" x2="129.27" y2="169.5"/><line class="cls-12" x1="114.3" y1="170.7" x2="115.34" y2="174.57"/><line class="cls-12" x1="100.39" y1="173.16" x2="100.74" y2="177.14"/><line class="cls-12" x1="86.26" y1="173.16" x2="85.91" y2="177.14"/><line class="cls-12" x1="72.35" y1="170.7" x2="71.32" y2="174.57"/><line class="cls-12" x1="59.08" y1="165.87" x2="57.39" y2="169.5"/><line class="cls-12" x1="52.81" y1="162.61" x2="50.81" y2="166.07"/><line class="cls-12" x1="86.26" y1="11.69" x2="85.91" y2="7.71"/><circle class="cls-13" cx="93.33" cy="92.43" r="68.88"/><line class="cls-5" x1="132.85" y1="23.97" x2="135.85" y2="18.78"/><line class="cls-5" x1="161.78" y1="52.91" x2="166.97" y2="49.91"/><line class="cls-5" x1="161.78" y1="131.95" x2="166.97" y2="134.95"/><line class="cls-5" x1="132.85" y1="160.88" x2="135.85" y2="166.07"/><line class="cls-5" x1="53.81" y1="160.88" x2="50.81" y2="166.07"/><path class="cls-7" d="M64.06,156.88l-.84,1.45a1.25,1.25,0,0,1-.29.35.87.87,0,0,1-.39.18,1.21,1.21,0,0,1-.5,0,2.35,2.35,0,0,1-.61-.26l-1.61-.93q-.5-.29-.71.08L59,158q-.21.37.28.65l2.64,1.52-.34.58-2.64-1.52a2.36,2.36,0,0,1-.53-.4,1.22,1.22,0,0,1-.27-.42.86.86,0,0,1,0-.43,1.23,1.23,0,0,1,.16-.43l.13-.23a1.22,1.22,0,0,1,.29-.35.86.86,0,0,1,.39-.18,1.21,1.21,0,0,1,.5,0,2.3,2.3,0,0,1,.61.26l1.61.93q.5.29.71-.08L63,157l-3.35-1.93.34-.58Z"/><path class="cls-7" d="M58.55,153.7l-2,3.41.46-.16.79.46-1.27.43-1-.6,2.29-4Z"/><path class="cls-7" d="M55.85,152.14a2.34,2.34,0,0,1,.53.4,1.22,1.22,0,0,1,.27.42.86.86,0,0,1,0,.43,1.25,1.25,0,0,1-.16.43l-1.18,2a1.24,1.24,0,0,1-.29.35.85.85,0,0,1-.39.18,1.23,1.23,0,0,1-.5,0,2.35,2.35,0,0,1-.62-.26L51.7,155a2.33,2.33,0,0,1-.53-.4,1.22,1.22,0,0,1-.27-.42.85.85,0,0,1,0-.43,1.2,1.2,0,0,1,.16-.43l1.18-2a1.21,1.21,0,0,1,.29-.35.86.86,0,0,1,.39-.18,1.23,1.23,0,0,1,.5,0,2.37,2.37,0,0,1,.61.26Zm-4.1,1.65q-.21.37.28.65l1.86,1.08q.5.29.71-.08l1.19-2.06q.21-.37-.28-.65l-1.86-1.08q-.5-.29-.71.08Z"/><path class="cls-7" d="M36.6,135l-1.45.84a1.25,1.25,0,0,1-.43.16.86.86,0,0,1-.43,0,1.2,1.2,0,0,1-.42-.27,2.35,2.35,0,0,1-.4-.53l-.93-1.61q-.29-.5-.65-.29l-.24.14c-.24.14-.27.38-.08.71l1.52,2.64-.59.34L31,134.44a2.35,2.35,0,0,1-.26-.62,1.21,1.21,0,0,1,0-.5.86.86,0,0,1,.18-.39,1.24,1.24,0,0,1,.35-.29l.23-.13a1.25,1.25,0,0,1,.43-.16.86.86,0,0,1,.43,0,1.19,1.19,0,0,1,.42.27,2.35,2.35,0,0,1,.4.53l.93,1.61q.29.5.65.28l.87-.5-1.93-3.35.58-.34Z"/><path class="cls-7" d="M31.94,126.92l-.68.39,2.06,3.57-.47.27-4-.47-.47-.81,3.87.46-1.55-2.69L28,129.21l-.43-.75,2.7-1.56-.24-.42.59-.34.24.42.68-.39Z"/><path class="cls-7" d="M30.28,124a2.35,2.35,0,0,1,.26.62,1.23,1.23,0,0,1,0,.5.87.87,0,0,1-.18.39,1.24,1.24,0,0,1-.35.29L28,127a1.23,1.23,0,0,1-.43.16.87.87,0,0,1-.43,0,1.21,1.21,0,0,1-.42-.27,2.3,2.3,0,0,1-.4-.53l-1.08-1.86a2.35,2.35,0,0,1-.26-.62,1.21,1.21,0,0,1,0-.5.85.85,0,0,1,.18-.39,1.24,1.24,0,0,1,.35-.29l2-1.18a1.22,1.22,0,0,1,.43-.16.85.85,0,0,1,.43,0,1.22,1.22,0,0,1,.42.27,2.33,2.33,0,0,1,.4.53Zm-4.37-.62q-.37.21-.08.71L26.9,126q.29.5.65.28l2.06-1.19q.36-.21.08-.71l-1.08-1.86q-.29-.5-.65-.28Z"/><path class="cls-7" d="M28.11,64.49l-.58-.34,1.53-2.66a.81.81,0,0,0,.13-.41.4.4,0,0,0-.25-.33l-.5-.29a.32.32,0,0,0-.34,0,.9.9,0,0,0-.29.32l-1.44,2.49-.59-.34,1.43-2.48a.77.77,0,0,0,.14-.41.31.31,0,0,0-.18-.24l-.34-.2a.31.31,0,0,0-.29,0,.76.76,0,0,0-.29.32l-1.53,2.65-.58-.34,1.53-2.65a2.69,2.69,0,0,1,.38-.53,1.17,1.17,0,0,1,.39-.28.75.75,0,0,1,.39-.06,1.05,1.05,0,0,1,.4.14l.3.17a.85.85,0,0,1,.36.38.62.62,0,0,1,0,.47.93.93,0,0,1,.43-.25.69.69,0,0,1,.52.11l.65.37a1,1,0,0,1,.29.25.75.75,0,0,1,.16.36,1.26,1.26,0,0,1,0,.49,2.6,2.6,0,0,1-.28.65Z"/><path class="cls-7" d="M31.48,58.65a2.34,2.34,0,0,1-.4.53,1.24,1.24,0,0,1-.42.27.86.86,0,0,1-.43,0,1.23,1.23,0,0,1-.43-.16l-2-1.18a1.23,1.23,0,0,1-.35-.29.85.85,0,0,1-.18-.39,1.21,1.21,0,0,1,0-.5,2.32,2.32,0,0,1,.26-.62l1.08-1.86A2.33,2.33,0,0,1,29,54a1.23,1.23,0,0,1,.42-.27.86.86,0,0,1,.43,0,1.22,1.22,0,0,1,.43.16l2,1.18a1.23,1.23,0,0,1,.35.29.86.86,0,0,1,.18.39,1.23,1.23,0,0,1,0,.5,2.34,2.34,0,0,1-.26.61Zm-1.65-4.1q-.36-.21-.65.28L28.1,56.7q-.29.5.08.71l2.06,1.19q.36.21.65-.28L32,56.45q.29-.5-.08-.71Z"/><path class="cls-7" d="M34.38,53.63a2.35,2.35,0,0,1-.4.53,1.23,1.23,0,0,1-.42.27.87.87,0,0,1-.43,0,1.24,1.24,0,0,1-.43-.16l-2-1.18a1.24,1.24,0,0,1-.35-.29.86.86,0,0,1-.18-.39,1.19,1.19,0,0,1,0-.5,2.3,2.3,0,0,1,.26-.62l1.08-1.86a2.32,2.32,0,0,1,.4-.53,1.21,1.21,0,0,1,.42-.27.84.84,0,0,1,.43,0,1.22,1.22,0,0,1,.43.16l2,1.18a1.24,1.24,0,0,1,.35.29.86.86,0,0,1,.18.39,1.23,1.23,0,0,1,0,.5,2.34,2.34,0,0,1-.26.61Zm-1.65-4.1q-.37-.21-.65.28L31,51.68q-.29.5.08.71l2.06,1.19q.36.21.65-.28l1.08-1.86q.29-.5-.08-.71Z"/><path class="cls-7" d="M51,35.53l-.34-.58,2.66-1.53a.82.82,0,0,0,.32-.3.4.4,0,0,0,0-.41l-.29-.5A.32.32,0,0,0,53,32a.89.89,0,0,0-.41.14l-2.49,1.44L49.81,33l2.48-1.43a.77.77,0,0,0,.32-.28.31.31,0,0,0,0-.29l-.2-.34a.31.31,0,0,0-.24-.18.76.76,0,0,0-.41.14l-2.65,1.53-.34-.58L51.4,30a2.69,2.69,0,0,1,.59-.26,1.19,1.19,0,0,1,.47,0,.76.76,0,0,1,.37.15,1.05,1.05,0,0,1,.27.32l.17.3a.84.84,0,0,1,.13.51.62.62,0,0,1-.21.42.93.93,0,0,1,.49,0,.69.69,0,0,1,.4.35l.37.65a1.08,1.08,0,0,1,.13.36.77.77,0,0,1,0,.39,1.26,1.26,0,0,1-.28.41,2.56,2.56,0,0,1-.57.42Z"/><path class="cls-7" d="M55.59,32.9l-.34-.58,2.66-1.53a.81.81,0,0,0,.32-.3.4.4,0,0,0,0-.41l-.29-.5a.31.31,0,0,0-.29-.18.89.89,0,0,0-.41.14L54.7,31l-.34-.59L56.84,29a.76.76,0,0,0,.32-.28.31.31,0,0,0,0-.29l-.2-.34a.31.31,0,0,0-.24-.18.77.77,0,0,0-.41.14l-2.65,1.53-.34-.59L56,27.41a2.68,2.68,0,0,1,.59-.26,1.18,1.18,0,0,1,.47,0,.75.75,0,0,1,.37.15,1,1,0,0,1,.27.32l.17.3a.84.84,0,0,1,.13.51.62.62,0,0,1-.21.42.93.93,0,0,1,.49,0,.69.69,0,0,1,.4.35l.37.65a1,1,0,0,1,.13.36.74.74,0,0,1,0,.39,1.24,1.24,0,0,1-.28.41,2.6,2.6,0,0,1-.57.42Z"/><path class="cls-7" d="M61.42,29.54a2.37,2.37,0,0,1-.61.26,1.24,1.24,0,0,1-.5,0,.86.86,0,0,1-.39-.18,1.24,1.24,0,0,1-.29-.35l-1.18-2a1.25,1.25,0,0,1-.16-.43.88.88,0,0,1,0-.43A1.21,1.21,0,0,1,58.6,26a2.34,2.34,0,0,1,.53-.4L61,24.5a2.33,2.33,0,0,1,.62-.26,1.21,1.21,0,0,1,.5,0,.86.86,0,0,1,.39.18,1.23,1.23,0,0,1,.29.35l1.18,2a1.21,1.21,0,0,1,.16.43.84.84,0,0,1,0,.43,1.23,1.23,0,0,1-.27.42,2.34,2.34,0,0,1-.53.4ZM62,25.16q-.21-.37-.71-.08l-1.86,1.08q-.5.29-.28.65l1.19,2.06q.21.36.71.08l1.86-1.08q.5-.29.28-.65Z"/><circle class="cls-1" cx="93.37" cy="91.89" r="62"/><circle class="cls-14" cx="93.33" cy="92.43" r="80.79"/><line class="cls-15" x1="16.33" y1="92.39" x2="8.33" y2="92.39"/><line class="cls-15" x1="93.33" y1="169.39" x2="93.33" y2="177.39"/><line class="cls-15" x1="170.33" y1="92.39" x2="178.33" y2="92.39"/><line class="cls-15" x1="93.33" y1="15.39" x2="93.33" y2="7.39"/><line class="cls-16" x1="15.49" y1="78.7" x2="9.58" y2="77.66"/><line class="cls-17" x1="12.59" y1="85.36" x2="8.61" y2="85.01"/><line class="cls-17" x1="15.05" y1="71.45" x2="11.18" y2="70.42"/><line class="cls-15" x1="16.33" y1="92.39" x2="8.33" y2="92.39"/><line class="cls-16" x1="42.52" y1="152.97" x2="38.66" y2="157.57"/><line class="cls-16" x1="32.78" y1="143.23" x2="28.18" y2="147.09"/><line class="cls-16" x1="19.05" y1="119.46" x2="13.42" y2="121.51"/><line class="cls-17" x1="46.84" y1="158.81" x2="44.55" y2="162.09"/><line class="cls-17" x1="36.02" y1="149.73" x2="33.19" y2="152.56"/><line class="cls-17" x1="26.94" y1="138.91" x2="23.67" y2="141.2"/><line class="cls-17" x1="19.88" y1="126.67" x2="16.25" y2="128.36"/><line class="cls-16" x1="15.49" y1="106.15" x2="9.58" y2="107.19"/><line class="cls-17" x1="15.05" y1="113.4" x2="11.18" y2="114.44"/><line class="cls-17" x1="12.59" y1="99.49" x2="8.61" y2="99.84"/><line class="cls-16" x1="24.88" y1="131.95" x2="19.68" y2="134.95"/><line class="cls-16" x1="19.05" y1="65.39" x2="13.42" y2="63.34"/><line class="cls-16" x1="32.78" y1="41.62" x2="28.18" y2="37.76"/><line class="cls-17" x1="19.88" y1="58.18" x2="16.25" y2="56.49"/><line class="cls-17" x1="26.94" y1="45.94" x2="23.67" y2="43.65"/><line class="cls-16" x1="24.88" y1="52.91" x2="19.68" y2="49.91"/><line class="cls-16" x1="42.52" y1="31.88" x2="38.66" y2="27.28"/><line class="cls-16" x1="66.29" y1="18.15" x2="64.24" y2="12.51"/><line class="cls-16" x1="79.6" y1="14.59" x2="78.56" y2="8.68"/><line class="cls-17" x1="36.02" y1="35.12" x2="33.19" y2="32.29"/><line class="cls-17" x1="46.84" y1="26.04" x2="44.55" y2="22.76"/><line class="cls-17" x1="59.08" y1="18.98" x2="57.39" y2="15.35"/><line class="cls-17" x1="72.35" y1="14.15" x2="71.32" y2="10.28"/><line class="cls-16" x1="53.81" y1="23.97" x2="50.81" y2="18.78"/><circle class="cls-18" cx="93.33" cy="92.43" r="85.75"/></svg>